<?xml version="1.0" encoding="UTF-8" standalone="no"?>
<!DOCTYPE svg PUBLIC "-//W3C//DTD SVG 1.1//EN"
 "http://www.w3.org/Graphics/SVG/1.1/DTD/svg11.dtd">
<!-- Generated by graphviz version 2.43.0 (0)
 -->
<!-- Title: LanguageToolchainsAndTmpNoexec Pages: 1 -->
<svg width="872pt" height="886pt"
 viewBox="0.00 0.00 872.00 886.18" xmlns="http://www.w3.org/2000/svg" xmlns:xlink="http://www.w3.org/1999/xlink">
<g id="graph0" class="graph" transform="scale(1 1) rotate(0) translate(4 882.18)">
<title>LanguageToolchainsAndTmpNoexec</title>
<polygon fill="#0a0e12" stroke="transparent" points="-4,4 -4,-882.18 868,-882.18 868,4 -4,4"/>
<text text-anchor="middle" x="432" y="-858.18" font-family="Helvetica,sans-Serif" font-size="20.00" fill="#dfe6ee">&quot;Can you access Nim lang?&quot; — adding Go/Rust/Nim, and a config&#45;vs&#45;reality correction</text>
<g id="clust1" class="cluster">
<title>cluster_install</title>
<polygon fill="#0f2a20" stroke="#39ffb0" stroke-dasharray="5,2" points="212.93,-658.18 212.93,-787.18 772.93,-787.18 772.93,-658.18 212.93,-658.18"/>
<text text-anchor="middle" x="492.93" y="-767.18" font-family="Helvetica,sans-Serif" font-size="20.00" fill="#39ffb0">Installed</text>
</g>
<!-- ask -->
<g id="node1" class="node">
<title>ask</title>
<polygon fill="#241a0d" stroke="#ff9f4d" points="614.43,-848.18 369.43,-848.18 369.43,-795.18 614.43,-795.18 614.43,-848.18"/>
<text text-anchor="middle" x="491.93" y="-832.98" font-family="Helvetica,sans-Serif" font-size="14.00" fill="#dfe6ee">Ask: &quot;can you access Nim lang?&quot;</text>
<text text-anchor="middle" x="491.93" y="-817.98" font-family="Helvetica,sans-Serif" font-size="14.00" fill="#dfe6ee">Baseline: gcc/cc present,</text>
<text text-anchor="middle" x="491.93" y="-802.98" font-family="Helvetica,sans-Serif" font-size="14.00" fill="#dfe6ee">no go, rustc/cargo, or nim</text>
</g>
<!-- apt -->
<g id="node2" class="node">
<title>apt</title>
<polygon fill="#0f2a20" stroke="#39ffb0" points="764.93,-741.68 500.93,-741.68 500.93,-673.68 764.93,-673.68 764.93,-741.68"/>
<text text-anchor="middle" x="632.93" y="-726.48" font-family="Helvetica,sans-Serif" font-size="14.00" fill="#dfe6ee">go + rustc/cargo:</text>
<text text-anchor="middle" x="632.93" y="-711.48" font-family="Helvetica,sans-Serif" font-size="14.00" fill="#dfe6ee">packaged in Debian, installed via</text>
<text text-anchor="middle" x="632.93" y="-696.48" font-family="Helvetica,sans-Serif" font-size="14.00" fill="#dfe6ee">apt&#45;get &#45;o APT::Sandbox::User=root</text>
<text text-anchor="middle" x="632.93" y="-681.48" font-family="Helvetica,sans-Serif" font-size="14.00" fill="#dfe6ee">(same technique as lspci/lshw/lnav)</text>
</g>
<!-- ask&#45;&gt;apt -->
<g id="edge1" class="edge">
<title>ask&#45;&gt;apt</title>
<path fill="none" stroke="#39ffb0" stroke-width="1.5" d="M524.28,-794.98C541.79,-781.08 563.79,-763.6 583.41,-748.02"/>
<polygon fill="#39ffb0" stroke="#39ffb0" stroke-width="1.5" points="585.71,-750.66 591.36,-741.7 581.35,-745.18 585.71,-750.66"/>
</g>
<!-- nim -->
<g id="node3" class="node">
<title>nim</title>
<polygon fill="#0f2a20" stroke="#39ffb0" points="482.93,-749.18 220.93,-749.18 220.93,-666.18 482.93,-666.18 482.93,-749.18"/>
<text text-anchor="middle" x="351.93" y="-733.98" font-family="Helvetica,sans-Serif" font-size="14.00" fill="#dfe6ee">nim: NOT packaged in Debian at all</text>
<text text-anchor="middle" x="351.93" y="-718.98" font-family="Helvetica,sans-Serif" font-size="14.00" fill="#dfe6ee">(apt&#45;cache search: zero hits).</text>
<text text-anchor="middle" x="351.93" y="-703.98" font-family="Helvetica,sans-Serif" font-size="14.00" fill="#dfe6ee">Installed via official choosenim</text>
<text text-anchor="middle" x="351.93" y="-688.98" font-family="Helvetica,sans-Serif" font-size="14.00" fill="#dfe6ee">installer &#45;&gt; /home/pn/.nimble/bin,</text>
<text text-anchor="middle" x="351.93" y="-673.98" font-family="Helvetica,sans-Serif" font-size="14.00" fill="#dfe6ee">symlinked into /usr/local/bin</text>
</g>
<!-- ask&#45;&gt;nim -->
<g id="edge2" class="edge">
<title>ask&#45;&gt;nim</title>
<path fill="none" stroke="#39ffb0" stroke-width="1.5" d="M459.81,-794.98C445.25,-783.33 427.54,-769.17 410.73,-755.72"/>
<polygon fill="#39ffb0" stroke="#39ffb0" stroke-width="1.5" points="412.56,-752.7 402.56,-749.18 408.18,-758.16 412.56,-752.7"/>
</g>
<!-- build -->
<g id="node4" class="node">
<title>build</title>
<polygon fill="#241a0d" stroke="#ff9f4d" points="604.43,-630.18 379.43,-630.18 379.43,-577.18 604.43,-577.18 604.43,-630.18"/>
<text text-anchor="middle" x="491.93" y="-614.98" font-family="Helvetica,sans-Serif" font-size="14.00" fill="#dfe6ee">Compile + run a test program</text>
<text text-anchor="middle" x="491.93" y="-599.98" font-family="Helvetica,sans-Serif" font-size="14.00" fill="#dfe6ee">in each: go run, rustc + exec,</text>
<text text-anchor="middle" x="491.93" y="-584.98" font-family="Helvetica,sans-Serif" font-size="14.00" fill="#dfe6ee">nim c &#45;r</text>
</g>
<!-- apt&#45;&gt;build -->
<g id="edge3" class="edge">
<title>apt&#45;&gt;build</title>
<path fill="none" stroke="#39ffb0" stroke-width="1.5" d="M587.15,-673.56C570.58,-661.58 551.93,-648.08 535.55,-636.23"/>
<polygon fill="#39ffb0" stroke="#39ffb0" stroke-width="1.5" points="537.36,-633.23 527.21,-630.2 533.26,-638.9 537.36,-633.23"/>
</g>
<!-- nim&#45;&gt;build -->
<g id="edge4" class="edge">
<title>nim&#45;&gt;build</title>
<path fill="none" stroke="#39ffb0" stroke-width="1.5" d="M407.67,-666.07C421.3,-656.14 435.69,-645.65 448.65,-636.22"/>
<polygon fill="#39ffb0" stroke="#39ffb0" stroke-width="1.5" points="450.91,-638.9 456.93,-630.18 446.79,-633.24 450.91,-638.9"/>
</g>
<!-- fail -->
<g id="node5" class="node">
<title>fail</title>
<polygon fill="#3a0d0d" stroke="#ff4d4d" points="696.14,-483.79 696.14,-517.44 576.52,-541.24 407.35,-541.24 287.73,-517.44 287.73,-483.79 407.35,-459.99 576.52,-459.99 696.14,-483.79"/>
<text text-anchor="middle" x="491.93" y="-511.92" font-family="Helvetica,sans-Serif" font-size="14.00" fill="#ffdada">ALL THREE fail: &quot;Permission denied&quot;</text>
<text text-anchor="middle" x="491.93" y="-496.92" font-family="Helvetica,sans-Serif" font-size="14.00" fill="#ffdada">on their own freshly&#45;built binary</text>
<text text-anchor="middle" x="491.93" y="-481.92" font-family="Helvetica,sans-Serif" font-size="14.00" fill="#ffdada">when built under /tmp</text>
</g>
<!-- build&#45;&gt;fail -->
<g id="edge5" class="edge">
<title>build&#45;&gt;fail</title>
<path fill="none" stroke="#39ffb0" stroke-width="1.5" d="M491.93,-577.18C491.93,-569.27 491.93,-560.28 491.93,-551.32"/>
<polygon fill="#39ffb0" stroke="#39ffb0" stroke-width="1.5" points="495.43,-551.28 491.93,-541.28 488.43,-551.28 495.43,-551.28"/>
</g>
<!-- discovery -->
<g id="node6" class="node">
<title>discovery</title>
<polygon fill="#152a3a" stroke="#39d0ff" stroke-width="2.5" points="675.93,-424.05 307.93,-424.05 307.93,-341.05 675.93,-341.05 675.93,-424.05"/>
<text text-anchor="middle" x="491.93" y="-408.85" font-family="Helvetica,sans-Serif" font-size="14.00" fill="#dfe6ee">Root cause: /tmp&#39;s ACTUAL live mount is noexec</text>
<text text-anchor="middle" x="491.93" y="-393.85" font-family="Helvetica,sans-Serif" font-size="14.00" fill="#dfe6ee">(`mount` shows rw,nosuid,nodev,noexec,relatime)</text>
<text text-anchor="middle" x="491.93" y="-378.85" font-family="Helvetica,sans-Serif" font-size="14.00" fill="#dfe6ee">— CONTRADICTS what `docker inspect</text>
<text text-anchor="middle" x="491.93" y="-363.85" font-family="Helvetica,sans-Serif" font-size="14.00" fill="#dfe6ee">.HostConfig.Tmpfs` reported earlier</text>
<text text-anchor="middle" x="491.93" y="-348.85" font-family="Helvetica,sans-Serif" font-size="14.00" fill="#dfe6ee">(rw,nosuid,size=512m, no noexec listed)</text>
</g>
<!-- fail&#45;&gt;discovery -->
<g id="edge6" class="edge">
<title>fail&#45;&gt;discovery</title>
<path fill="none" stroke="#39ffb0" stroke-width="1.5" d="M491.93,-460C491.93,-451.69 491.93,-442.82 491.93,-434.18"/>
<polygon fill="#39ffb0" stroke="#39ffb0" stroke-width="1.5" points="495.43,-434.18 491.93,-424.18 488.43,-434.18 495.43,-434.18"/>
</g>
<!-- correction -->
<g id="node7" class="node">
<title>correction</title>
<polygon fill="#3a0d0d" stroke="#ff4d4d" points="543.67,-215.2 543.67,-267.85 394.45,-305.08 183.42,-305.08 34.2,-267.85 34.2,-215.2 183.42,-177.97 394.45,-177.97 543.67,-215.2"/>
<text text-anchor="middle" x="288.93" y="-267.83" font-family="Helvetica,sans-Serif" font-size="14.00" fill="#ffdada">Corrects the earlier tmpfs finding</text>
<text text-anchor="middle" x="288.93" y="-252.83" font-family="Helvetica,sans-Serif" font-size="14.00" fill="#ffdada">(diagram 07 in sandbox&#45;reference/diagrams/)</text>
<text text-anchor="middle" x="288.93" y="-237.83" font-family="Helvetica,sans-Serif" font-size="14.00" fill="#ffdada">— config intent and live mount reality</text>
<text text-anchor="middle" x="288.93" y="-222.83" font-family="Helvetica,sans-Serif" font-size="14.00" fill="#ffdada">can diverge; always verify with `mount`,</text>
<text text-anchor="middle" x="288.93" y="-207.83" font-family="Helvetica,sans-Serif" font-size="14.00" fill="#ffdada">not just `docker inspect`</text>
</g>
<!-- discovery&#45;&gt;correction -->
<g id="edge7" class="edge">
<title>discovery&#45;&gt;correction</title>
<path fill="none" stroke="#39ffb0" stroke-width="1.5" d="M432.67,-340.97C418.85,-331.5 403.75,-321.16 388.71,-310.86"/>
<polygon fill="#39ffb0" stroke="#39ffb0" stroke-width="1.5" points="390.59,-307.9 380.36,-305.14 386.63,-313.68 390.59,-307.9"/>
</g>
<!-- gotcha -->
<g id="node8" class="node">
<title>gotcha</title>
<polygon fill="#241a0d" stroke="#ff9f4d" points="829.93,-275.53 561.93,-275.53 561.93,-207.53 829.93,-207.53 829.93,-275.53"/>
<text text-anchor="middle" x="695.93" y="-260.33" font-family="Helvetica,sans-Serif" font-size="14.00" fill="#dfe6ee">Extra wrinkle: `go run` stages its</text>
<text text-anchor="middle" x="695.93" y="-245.33" font-family="Helvetica,sans-Serif" font-size="14.00" fill="#dfe6ee">build under $TMPDIR regardless of</text>
<text text-anchor="middle" x="695.93" y="-230.33" font-family="Helvetica,sans-Serif" font-size="14.00" fill="#dfe6ee">where the source file lives — fails</text>
<text text-anchor="middle" x="695.93" y="-215.33" font-family="Helvetica,sans-Serif" font-size="14.00" fill="#dfe6ee">EVEN with source under /workspace</text>
</g>
<!-- discovery&#45;&gt;gotcha -->
<g id="edge8" class="edge">
<title>discovery&#45;&gt;gotcha</title>
<path fill="none" stroke="#39ffb0" stroke-width="1.5" d="M551.49,-340.97C579.09,-322.15 611.74,-299.9 639.01,-281.32"/>
<polygon fill="#39ffb0" stroke="#39ffb0" stroke-width="1.5" points="641,-284.2 647.29,-275.67 637.06,-278.41 641,-284.2"/>
</g>
<!-- fix -->
<g id="node9" class="node">
<title>fix</title>
<polygon fill="#0f2a20" stroke="#39ffb0" stroke-width="2.5" points="635.93,-142 347.93,-142 347.93,-74 635.93,-74 635.93,-142"/>
<text text-anchor="middle" x="491.93" y="-126.8" font-family="Helvetica,sans-Serif" font-size="14.00" fill="#dfe6ee">Fix: always build/run under /workspace</text>
<text text-anchor="middle" x="491.93" y="-111.8" font-family="Helvetica,sans-Serif" font-size="14.00" fill="#dfe6ee">(real ext4 bind mount, no noexec).</text>
<text text-anchor="middle" x="491.93" y="-96.8" font-family="Helvetica,sans-Serif" font-size="14.00" fill="#dfe6ee">For `go run` specifically: redirect</text>
<text text-anchor="middle" x="491.93" y="-81.8" font-family="Helvetica,sans-Serif" font-size="14.00" fill="#dfe6ee">TMPDIR there too, or use `go build`</text>
</g>
<!-- correction&#45;&gt;fix -->
<g id="edge9" class="edge">
<title>correction&#45;&gt;fix</title>
<path fill="none" stroke="#39ffb0" stroke-width="1.5" d="M385.68,-177.84C401.64,-167.5 417.76,-157.06 432.45,-147.54"/>
<polygon fill="#39ffb0" stroke="#39ffb0" stroke-width="1.5" points="434.44,-150.42 440.93,-142.05 430.63,-144.55 434.44,-150.42"/>
</g>
<!-- gotcha&#45;&gt;fix -->
<g id="edge10" class="edge">
<title>gotcha&#45;&gt;fix</title>
<path fill="none" stroke="#39ffb0" stroke-width="1.5" d="M644.72,-207.51C616.47,-189.29 581.24,-166.58 551.73,-147.55"/>
<polygon fill="#39ffb0" stroke="#39ffb0" stroke-width="1.5" points="553.47,-144.51 543.17,-142.03 549.68,-150.39 553.47,-144.51"/>
</g>
<!-- verified -->
<g id="node10" class="node">
<title>verified</title>
<polygon fill="#556070" stroke="transparent" points="761.93,-38 221.93,-38 221.93,0 761.93,0 761.93,-38"/>
<text text-anchor="middle" x="491.93" y="-22.8" font-family="Helvetica,sans-Serif" font-size="14.00" fill="#8b5cf6">Verified: go version 1.24.4, rustc 1.85.1, nim 2.2.12 — all compile AND run</text>
<text text-anchor="middle" x="491.93" y="-7.8" font-family="Helvetica,sans-Serif" font-size="14.00" fill="#8b5cf6">correctly once building happens under /workspace.</text>
</g>
<!-- fix&#45;&gt;verified -->
</g>
</svg>
