<?xml version="1.0" encoding="UTF-8" standalone="no"?>
<!DOCTYPE svg PUBLIC "-//W3C//DTD SVG 1.1//EN"
 "http://www.w3.org/Graphics/SVG/1.1/DTD/svg11.dtd">
<!-- Generated by graphviz version 2.43.0 (0)
 -->
<!-- Title: TwoExistingSupervisionPatterns Pages: 1 -->
<svg width="1462pt" height="290pt"
 viewBox="0.00 0.00 1462.00 290.00" xmlns="http://www.w3.org/2000/svg" xmlns:xlink="http://www.w3.org/1999/xlink">
<g id="graph0" class="graph" transform="scale(1 1) rotate(0) translate(4 286)">
<title>TwoExistingSupervisionPatterns</title>
<polygon fill="#0a0e12" stroke="transparent" points="-4,4 -4,-286 1458,-286 1458,4 -4,4"/>
<text text-anchor="middle" x="727" y="-262" font-family="Helvetica,sans-Serif" font-size="20.00" fill="#dfe6ee">Hermes already has two different &quot;ask something smarter for help&quot; patterns</text>
<g id="clust1" class="cluster">
<title>cluster_delegate</title>
<polygon fill="#0d1a22" stroke="#39d0ff" stroke-dasharray="5,2" points="357,-130 357,-244 791,-244 791,-130 357,-130"/>
<text text-anchor="middle" x="574" y="-224" font-family="Helvetica,sans-Serif" font-size="20.00" fill="#39d0ff">delegate_task (see ../delegate&#45;to&#45;frontier/)</text>
</g>
<g id="clust2" class="cluster">
<title>cluster_goal</title>
<polygon fill="#0f2a20" stroke="#39ffb0" stroke-dasharray="5,2" points="399,-8 399,-122 750,-122 750,-8 399,-8"/>
<text text-anchor="middle" x="574.5" y="-102" font-family="Helvetica,sans-Serif" font-size="20.00" fill="#39ffb0">/goal mode + auxiliary.goal_judge</text>
</g>
<!-- question -->
<g id="node1" class="node">
<title>question</title>
<polygon fill="#241a0d" stroke="#ff9f4d" points="329,-137.5 0,-137.5 0,-84.5 329,-84.5 329,-137.5"/>
<text text-anchor="middle" x="164.5" y="-122.3" font-family="Helvetica,sans-Serif" font-size="14.00" fill="#dfe6ee">&quot;What if the frontier model were the MASTER</text>
<text text-anchor="middle" x="164.5" y="-107.3" font-family="Helvetica,sans-Serif" font-size="14.00" fill="#dfe6ee">guiding the local agent, instead of an</text>
<text text-anchor="middle" x="164.5" y="-92.3" font-family="Helvetica,sans-Serif" font-size="14.00" fill="#dfe6ee">occasional delegated subagent?&quot;</text>
</g>
<!-- d1 -->
<g id="node2" class="node">
<title>d1</title>
<polygon fill="#152a3a" stroke="#39d0ff" points="692,-206 456,-206 456,-138 692,-138 692,-206"/>
<text text-anchor="middle" x="574" y="-190.8" font-family="Helvetica,sans-Serif" font-size="14.00" fill="#dfe6ee">Model&#45;INITIATED, on demand</text>
<text text-anchor="middle" x="574" y="-175.8" font-family="Helvetica,sans-Serif" font-size="14.00" fill="#dfe6ee">Spawns an ISOLATED subagent</text>
<text text-anchor="middle" x="574" y="-160.8" font-family="Helvetica,sans-Serif" font-size="14.00" fill="#dfe6ee">(own conversation, own tools)</text>
<text text-anchor="middle" x="574" y="-145.8" font-family="Helvetica,sans-Serif" font-size="14.00" fill="#dfe6ee">Only the final summary returns</text>
</g>
<!-- question&#45;&gt;d1 -->
<g id="edge1" class="edge">
<title>question&#45;&gt;d1</title>
<path fill="none" stroke="#39ffb0" stroke-width="1.5" d="M329.19,-135.5C367.93,-141.3 408.67,-147.4 445.53,-152.92"/>
<polygon fill="#39ffb0" stroke="#39ffb0" stroke-width="1.5" points="445.41,-156.44 455.82,-154.46 446.44,-149.52 445.41,-156.44"/>
</g>
<!-- g1 -->
<g id="node3" class="node">
<title>g1</title>
<polygon fill="#0f2a20" stroke="#39ffb0" stroke-width="2.5" points="708,-84 440,-84 440,-16 708,-16 708,-84"/>
<text text-anchor="middle" x="574" y="-68.8" font-family="Helvetica,sans-Serif" font-size="14.00" fill="#dfe6ee">AUTOMATIC, every turn</text>
<text text-anchor="middle" x="574" y="-53.8" font-family="Helvetica,sans-Serif" font-size="14.00" fill="#dfe6ee">SAME session — no isolated context</text>
<text text-anchor="middle" x="574" y="-38.8" font-family="Helvetica,sans-Serif" font-size="14.00" fill="#dfe6ee">Frontier model (Claude Haiku)</text>
<text text-anchor="middle" x="574" y="-23.8" font-family="Helvetica,sans-Serif" font-size="14.00" fill="#dfe6ee">judges done/blocked/continue/wait</text>
</g>
<!-- question&#45;&gt;g1 -->
<g id="edge2" class="edge">
<title>question&#45;&gt;g1</title>
<path fill="none" stroke="#39ffb0" stroke-width="1.5" d="M329.19,-86.5C362.48,-81.51 397.26,-76.31 429.77,-71.44"/>
<polygon fill="#39ffb0" stroke="#39ffb0" stroke-width="1.5" points="430.41,-74.88 439.79,-69.94 429.38,-67.96 430.41,-74.88"/>
</g>
<!-- answer -->
<g id="node4" class="node">
<title>answer</title>
<polygon fill="#556070" stroke="transparent" points="1454,-137.5 819,-137.5 819,-84.5 1454,-84.5 1454,-137.5"/>
<text text-anchor="middle" x="1136.5" y="-122.3" font-family="Helvetica,sans-Serif" font-size="14.00" fill="#8b5cf6">Answer: /goal mode is architecturally the closer match to &quot;master guides slave&quot; —</text>
<text text-anchor="middle" x="1136.5" y="-107.3" font-family="Helvetica,sans-Serif" font-size="14.00" fill="#8b5cf6">it&#39;s already attached to the running session, already automatic, already frontier&#45;powered.</text>
<text text-anchor="middle" x="1136.5" y="-92.3" font-family="Helvetica,sans-Serif" font-size="14.00" fill="#8b5cf6">The gap (found by reading hermes_cli/goals.py directly) is what it does with its verdict.</text>
</g>
<!-- d1&#45;&gt;answer -->
<!-- g1&#45;&gt;answer -->
</g>
</svg>
