<?xml version="1.0" encoding="UTF-8" standalone="no"?>
<!DOCTYPE svg PUBLIC "-//W3C//DTD SVG 1.1//EN"
 "http://www.w3.org/Graphics/SVG/1.1/DTD/svg11.dtd">
<!-- Generated by graphviz version 2.43.0 (0)
 -->
<!-- Title: GapAndFix Pages: 1 -->
<svg width="778pt" height="812pt"
 viewBox="0.00 0.00 778.00 812.09" xmlns="http://www.w3.org/2000/svg" xmlns:xlink="http://www.w3.org/1999/xlink">
<g id="graph0" class="graph" transform="scale(1 1) rotate(0) translate(4 808.09)">
<title>GapAndFix</title>
<polygon fill="#0a0e12" stroke="transparent" points="-4,4 -4,-808.09 774,-808.09 774,4 -4,4"/>
<text text-anchor="middle" x="385" y="-784.09" font-family="Helvetica,sans-Serif" font-size="20.00" fill="#dfe6ee">The gap: the judge&#39;s diagnosis was computed every turn, then thrown away</text>
<g id="clust1" class="cluster">
<title>cluster_before</title>
<polygon fill="#3a0d0d" stroke="#ff4d4d" stroke-dasharray="5,2" points="199,-364 199,-604.09 571,-604.09 571,-364 199,-364"/>
<text text-anchor="middle" x="385" y="-584.09" font-family="Helvetica,sans-Serif" font-size="20.00" fill="#ff4d4d">BEFORE this patch</text>
</g>
<g id="clust2" class="cluster">
<title>cluster_after</title>
<polygon fill="#0f2a20" stroke="#39ffb0" stroke-dasharray="5,2" points="235,-97 235,-211 535,-211 535,-97 235,-97"/>
<text text-anchor="middle" x="385" y="-191" font-family="Helvetica,sans-Serif" font-size="20.00" fill="#39ffb0">AFTER this patch</text>
</g>
<!-- judge -->
<g id="node1" class="node">
<title>judge</title>
<polygon fill="#152a3a" stroke="#39d0ff" points="515,-774.09 255,-774.09 255,-706.09 515,-706.09 515,-774.09"/>
<text text-anchor="middle" x="385" y="-758.89" font-family="Helvetica,sans-Serif" font-size="14.00" fill="#dfe6ee">auxiliary.goal_judge (Claude Haiku)</text>
<text text-anchor="middle" x="385" y="-743.89" font-family="Helvetica,sans-Serif" font-size="14.00" fill="#dfe6ee">every turn: verdict + reason</text>
<text text-anchor="middle" x="385" y="-728.89" font-family="Helvetica,sans-Serif" font-size="14.00" fill="#dfe6ee">e.g. &quot;The agent has not yet written</text>
<text text-anchor="middle" x="385" y="-713.89" font-family="Helvetica,sans-Serif" font-size="14.00" fill="#dfe6ee">the haiku or created the file...&quot;</text>
</g>
<!-- stored -->
<g id="node2" class="node">
<title>stored</title>
<polygon fill="#152a3a" stroke="#39d0ff" points="485.5,-669.09 284.5,-669.09 284.5,-631.09 485.5,-631.09 485.5,-669.09"/>
<text text-anchor="middle" x="385" y="-653.89" font-family="Helvetica,sans-Serif" font-size="14.00" fill="#dfe6ee">state.last_reason = reason</text>
<text text-anchor="middle" x="385" y="-638.89" font-family="Helvetica,sans-Serif" font-size="14.00" fill="#dfe6ee">(real, computed, stored)</text>
</g>
<!-- judge&#45;&gt;stored -->
<g id="edge1" class="edge">
<title>judge&#45;&gt;stored</title>
<path fill="none" stroke="#39ffb0" stroke-width="1.5" d="M385,-706.07C385,-697.29 385,-687.89 385,-679.39"/>
<polygon fill="#39ffb0" stroke="#39ffb0" stroke-width="1.5" points="388.5,-679.22 385,-669.22 381.5,-679.22 388.5,-679.22"/>
</g>
<!-- used_for -->
<g id="node3" class="node">
<title>used_for</title>
<polygon fill="#3a0d0d" stroke="#ff4d4d" points="485,-566.09 285,-566.09 285,-513.09 485,-513.09 485,-566.09"/>
<text text-anchor="middle" x="385" y="-550.89" font-family="Helvetica,sans-Serif" font-size="14.00" fill="#ffdada">Used ONLY for:</text>
<text text-anchor="middle" x="385" y="-535.89" font-family="Helvetica,sans-Serif" font-size="14.00" fill="#ffdada">&#45; human&#45;facing status line</text>
<text text-anchor="middle" x="385" y="-520.89" font-family="Helvetica,sans-Serif" font-size="14.00" fill="#ffdada">&#45; log message</text>
</g>
<!-- stored&#45;&gt;used_for -->
<g id="edge3" class="edge">
<title>stored&#45;&gt;used_for</title>
<path fill="none" stroke="#39ffb0" stroke-width="1.5" d="M385,-630.68C385,-615.93 385,-594.76 385,-576.66"/>
<polygon fill="#39ffb0" stroke="#39ffb0" stroke-width="1.5" points="388.5,-576.42 385,-566.42 381.5,-576.42 388.5,-576.42"/>
</g>
<!-- discarded -->
<g id="node4" class="node">
<title>discarded</title>
<polygon fill="#3a0d0d" stroke="#ff4d4d" points="562.63,-402.47 562.63,-445.62 458.58,-476.13 311.42,-476.13 207.37,-445.62 207.37,-402.47 311.42,-371.96 458.58,-371.96 562.63,-402.47"/>
<text text-anchor="middle" x="385" y="-442.84" font-family="Helvetica,sans-Serif" font-size="14.00" fill="#ffdada">next_continuation_prompt()</text>
<text text-anchor="middle" x="385" y="-427.84" font-family="Helvetica,sans-Serif" font-size="14.00" fill="#ffdada">returns one of 3 FIXED generic</text>
<text text-anchor="middle" x="385" y="-412.84" font-family="Helvetica,sans-Serif" font-size="14.00" fill="#ffdada">templates — reason discarded,</text>
<text text-anchor="middle" x="385" y="-397.84" font-family="Helvetica,sans-Serif" font-size="14.00" fill="#ffdada">never reaches the agent</text>
</g>
<!-- used_for&#45;&gt;discarded -->
<g id="edge2" class="edge">
<title>used_for&#45;&gt;discarded</title>
<path fill="none" stroke="#39ffb0" stroke-width="1.5" d="M385,-512.82C385,-504.85 385,-495.69 385,-486.37"/>
<polygon fill="#39ffb0" stroke="#39ffb0" stroke-width="1.5" points="388.5,-486.25 385,-476.25 381.5,-486.25 388.5,-486.25"/>
</g>
<!-- precedent -->
<g id="node5" class="node">
<title>precedent</title>
<polygon fill="#241a0d" stroke="#ff9f4d" points="542,-321 228,-321 228,-238 542,-238 542,-321"/>
<text text-anchor="middle" x="385" y="-305.8" font-family="Helvetica,sans-Serif" font-size="14.00" fill="#dfe6ee">Real precedent in the SAME file:</text>
<text text-anchor="middle" x="385" y="-290.8" font-family="Helvetica,sans-Serif" font-size="14.00" fill="#dfe6ee">KANBAN_GOAL_CONTINUATION_TEMPLATE</text>
<text text-anchor="middle" x="385" y="-275.8" font-family="Helvetica,sans-Serif" font-size="14.00" fill="#dfe6ee">already includes &quot;Reason: {reason}&quot;</text>
<text text-anchor="middle" x="385" y="-260.8" font-family="Helvetica,sans-Serif" font-size="14.00" fill="#dfe6ee">for its worker — proves the pattern</text>
<text text-anchor="middle" x="385" y="-245.8" font-family="Helvetica,sans-Serif" font-size="14.00" fill="#dfe6ee">is already trusted here</text>
</g>
<!-- discarded&#45;&gt;precedent -->
<g id="edge4" class="edge">
<title>discarded&#45;&gt;precedent</title>
<path fill="none" stroke="#8b5cf6" stroke-width="1.5" stroke-dasharray="5,2" d="M385,-371.99C385,-358.87 385,-344.77 385,-331.65"/>
<polygon fill="#8b5cf6" stroke="#8b5cf6" stroke-width="1.5" points="388.5,-331.38 385,-321.38 381.5,-331.38 388.5,-331.38"/>
<text text-anchor="middle" x="446.5" y="-342.8" font-family="Helvetica,sans-Serif" font-size="14.00" fill="#ffa93a">if it works there...</text>
</g>
<!-- fix -->
<g id="node6" class="node">
<title>fix</title>
<polygon fill="#0f2a20" stroke="#39ffb0" stroke-width="2.5" points="527,-173 243,-173 243,-105 527,-105 527,-173"/>
<text text-anchor="middle" x="385" y="-157.8" font-family="Helvetica,sans-Serif" font-size="14.00" fill="#dfe6ee">next_continuation_prompt() appends</text>
<text text-anchor="middle" x="385" y="-142.8" font-family="Helvetica,sans-Serif" font-size="14.00" fill="#dfe6ee">_JUDGE_GUIDANCE_TEMPLATE.format(</text>
<text text-anchor="middle" x="385" y="-127.8" font-family="Helvetica,sans-Serif" font-size="14.00" fill="#dfe6ee"> &#160;reason=s.last_reason)</text>
<text text-anchor="middle" x="385" y="-112.8" font-family="Helvetica,sans-Serif" font-size="14.00" fill="#dfe6ee">to whichever base template applies</text>
</g>
<!-- precedent&#45;&gt;fix -->
<g id="edge5" class="edge">
<title>precedent&#45;&gt;fix</title>
<path fill="none" stroke="#39ffb0" stroke-width="1.5" d="M385,-237.69C385,-220.65 385,-200.81 385,-183.49"/>
<polygon fill="#39ffb0" stroke="#39ffb0" stroke-width="1.5" points="388.5,-183.08 385,-173.08 381.5,-183.08 388.5,-183.08"/>
</g>
<!-- outcome -->
<g id="node7" class="node">
<title>outcome</title>
<polygon fill="#152a3a" stroke="#39d0ff" points="633.5,-68 130.5,-68 130.5,0 639.5,0 639.5,-62 633.5,-68"/>
<polyline fill="none" stroke="#39d0ff" points="633.5,-68 633.5,-62 "/>
<polyline fill="none" stroke="#39d0ff" points="639.5,-62 633.5,-62 "/>
<text text-anchor="middle" x="385" y="-52.8" font-family="Helvetica,sans-Serif" font-size="14.00" fill="#dfe6ee">Verified twice: unit&#45;level (synthetic reason appears; None produces</text>
<text text-anchor="middle" x="385" y="-37.8" font-family="Helvetica,sans-Serif" font-size="14.00" fill="#dfe6ee">byte&#45;identical output to old code) and end&#45;to&#45;end (a REAL judge_goal()</text>
<text text-anchor="middle" x="385" y="-22.8" font-family="Helvetica,sans-Serif" font-size="14.00" fill="#dfe6ee">call, real Anthropic round&#45;trip, produced a genuine diagnosis that</text>
<text text-anchor="middle" x="385" y="-7.8" font-family="Helvetica,sans-Serif" font-size="14.00" fill="#dfe6ee">correctly flowed into the next&#45;turn prompt).</text>
</g>
<!-- fix&#45;&gt;outcome -->
</g>
</svg>
