<?xml version="1.0" encoding="UTF-8" standalone="no"?>
<!DOCTYPE svg PUBLIC "-//W3C//DTD SVG 1.1//EN"
 "http://www.w3.org/Graphics/SVG/1.1/DTD/svg11.dtd">
<!-- Generated by graphviz version 2.43.0 (0)
 -->
<!-- Title: SearchFirstFoundADuplicate Pages: 1 -->
<svg width="709pt" height="909pt"
 viewBox="0.00 0.00 709.00 909.02" xmlns="http://www.w3.org/2000/svg" xmlns:xlink="http://www.w3.org/1999/xlink">
<g id="graph0" class="graph" transform="scale(1 1) rotate(0) translate(4 905.02)">
<title>SearchFirstFoundADuplicate</title>
<polygon fill="#0a0e12" stroke="transparent" points="-4,4 -4,-905.02 705,-905.02 705,4 -4,4"/>
<text text-anchor="middle" x="350.5" y="-881.02" font-family="Helvetica,sans-Serif" font-size="20.00" fill="#dfe6ee">Before opening a PR: CONTRIBUTING.md says search first. It paid off.</text>
<!-- ready -->
<g id="node1" class="node">
<title>ready</title>
<polygon fill="#241a0d" stroke="#ff9f4d" points="454.5,-871.02 246.5,-871.02 246.5,-833.02 454.5,-833.02 454.5,-871.02"/>
<text text-anchor="middle" x="350.5" y="-855.82" font-family="Helvetica,sans-Serif" font-size="14.00" fill="#dfe6ee">Patch written, tested, ready</text>
<text text-anchor="middle" x="350.5" y="-840.82" font-family="Helvetica,sans-Serif" font-size="14.00" fill="#dfe6ee">to propose upstream</text>
</g>
<!-- search -->
<g id="node2" class="node">
<title>search</title>
<polygon fill="#152a3a" stroke="#39d0ff" points="531.5,-797.02 169.5,-797.02 169.5,-729.02 531.5,-729.02 531.5,-797.02"/>
<text text-anchor="middle" x="350.5" y="-781.82" font-family="Helvetica,sans-Serif" font-size="14.00" fill="#dfe6ee">gh search prs &#45;&#45;repo NousResearch/hermes&#45;agent</text>
<text text-anchor="middle" x="350.5" y="-766.82" font-family="Helvetica,sans-Serif" font-size="14.00" fill="#dfe6ee">&quot;goal judge&quot; / &quot;continuation prompt&quot;</text>
<text text-anchor="middle" x="350.5" y="-751.82" font-family="Helvetica,sans-Serif" font-size="14.00" fill="#dfe6ee">(CONTRIBUTING.md: search open AND</text>
<text text-anchor="middle" x="350.5" y="-736.82" font-family="Helvetica,sans-Serif" font-size="14.00" fill="#dfe6ee">merged PRs/issues before building)</text>
</g>
<!-- ready&#45;&gt;search -->
<g id="edge1" class="edge">
<title>ready&#45;&gt;search</title>
<path fill="none" stroke="#39ffb0" stroke-width="1.5" d="M350.5,-833C350.5,-825.48 350.5,-816.39 350.5,-807.31"/>
<polygon fill="#39ffb0" stroke="#39ffb0" stroke-width="1.5" points="354,-807.15 350.5,-797.15 347,-807.15 354,-807.15"/>
</g>
<!-- found -->
<g id="node3" class="node">
<title>found</title>
<polygon fill="#ff9f4d" stroke="#ff9f4d" points="533.35,-586.95 533.35,-649.09 426.24,-693.03 274.76,-693.03 167.65,-649.09 167.65,-586.95 274.76,-543.01 426.24,-543.01 533.35,-586.95"/>
<text text-anchor="middle" x="350.5" y="-651.82" font-family="Helvetica,sans-Serif" font-size="14.00" fill="#2a1a0d">FOUND: PR #93521</text>
<text text-anchor="middle" x="350.5" y="-636.82" font-family="Helvetica,sans-Serif" font-size="14.00" fill="#2a1a0d">&quot;fix(goals): feed judge feedback</text>
<text text-anchor="middle" x="350.5" y="-621.82" font-family="Helvetica,sans-Serif" font-size="14.00" fill="#2a1a0d">into continuation&quot; — OPEN,</text>
<text text-anchor="middle" x="350.5" y="-606.82" font-family="Helvetica,sans-Serif" font-size="14.00" fill="#2a1a0d">unmerged, filed 2026&#45;08&#45;24</text>
<text text-anchor="middle" x="350.5" y="-591.82" font-family="Helvetica,sans-Serif" font-size="14.00" fill="#2a1a0d">by another contributor.</text>
<text text-anchor="middle" x="350.5" y="-576.82" font-family="Helvetica,sans-Serif" font-size="14.00" fill="#2a1a0d">Same fix, independently found.</text>
</g>
<!-- search&#45;&gt;found -->
<g id="edge2" class="edge">
<title>search&#45;&gt;found</title>
<path fill="none" stroke="#39ffb0" stroke-width="1.5" d="M350.5,-728.86C350.5,-721.06 350.5,-712.41 350.5,-703.47"/>
<polygon fill="#39ffb0" stroke="#39ffb0" stroke-width="1.5" points="354,-703.3 350.5,-693.3 347,-703.3 354,-703.3"/>
</g>
<!-- review -->
<g id="node4" class="node">
<title>review</title>
<polygon fill="#152a3a" stroke="#39d0ff" points="498.5,-507.01 202.5,-507.01 202.5,-409.01 498.5,-409.01 498.5,-507.01"/>
<text text-anchor="middle" x="350.5" y="-491.81" font-family="Helvetica,sans-Serif" font-size="14.00" fill="#dfe6ee">Their PR already got a real review:</text>
<text text-anchor="middle" x="350.5" y="-476.81" font-family="Helvetica,sans-Serif" font-size="14.00" fill="#dfe6ee">last_reason ALSO holds judge</text>
<text text-anchor="middle" x="350.5" y="-461.81" font-family="Helvetica,sans-Serif" font-size="14.00" fill="#dfe6ee">INFRASTRUCTURE error text on a</text>
<text text-anchor="middle" x="350.5" y="-446.81" font-family="Helvetica,sans-Serif" font-size="14.00" fill="#dfe6ee">parse/transport failure — would leak</text>
<text text-anchor="middle" x="350.5" y="-431.81" font-family="Helvetica,sans-Serif" font-size="14.00" fill="#dfe6ee">to the agent as fake &quot;feedback&quot;.</text>
<text text-anchor="middle" x="350.5" y="-416.81" font-family="Helvetica,sans-Serif" font-size="14.00" fill="#dfe6ee">Flagged, unaddressed as of this writing.</text>
</g>
<!-- found&#45;&gt;review -->
<g id="edge3" class="edge">
<title>found&#45;&gt;review</title>
<path fill="none" stroke="#39ffb0" stroke-width="1.5" d="M350.5,-542.64C350.5,-534.2 350.5,-525.69 350.5,-517.49"/>
<polygon fill="#39ffb0" stroke="#39ffb0" stroke-width="1.5" points="354,-517.31 350.5,-507.31 347,-517.31 354,-517.31"/>
</g>
<!-- shared -->
<g id="node5" class="node">
<title>shared</title>
<polygon fill="#3a0d0d" stroke="#ff4d4d" points="543.24,-266.94 543.24,-329.08 430.34,-373.02 270.66,-373.02 157.76,-329.08 157.76,-266.94 270.66,-222.99 430.34,-222.99 543.24,-266.94"/>
<text text-anchor="middle" x="350.5" y="-331.81" font-family="Helvetica,sans-Serif" font-size="14.00" fill="#ffdada">Our own local patch had the</text>
<text text-anchor="middle" x="350.5" y="-316.81" font-family="Helvetica,sans-Serif" font-size="14.00" fill="#ffdada">EXACT SAME gap — confirmed by</text>
<text text-anchor="middle" x="350.5" y="-301.81" font-family="Helvetica,sans-Serif" font-size="14.00" fill="#ffdada">reproducing it in our own first</text>
<text text-anchor="middle" x="350.5" y="-286.81" font-family="Helvetica,sans-Serif" font-size="14.00" fill="#ffdada">(broken&#45;env) test run: a judge</text>
<text text-anchor="middle" x="350.5" y="-271.81" font-family="Helvetica,sans-Serif" font-size="14.00" fill="#ffdada">RuntimeError got fed back as</text>
<text text-anchor="middle" x="350.5" y="-256.81" font-family="Helvetica,sans-Serif" font-size="14.00" fill="#ffdada">&quot;guidance&quot; verbatim</text>
</g>
<!-- review&#45;&gt;shared -->
<g id="edge4" class="edge">
<title>review&#45;&gt;shared</title>
<path fill="none" stroke="#39ffb0" stroke-width="1.5" d="M350.5,-408.75C350.5,-400.66 350.5,-392.06 350.5,-383.38"/>
<polygon fill="#39ffb0" stroke="#39ffb0" stroke-width="1.5" points="354,-383.17 350.5,-373.17 347,-383.17 354,-383.17"/>
</g>
<!-- action -->
<g id="node6" class="node">
<title>action</title>
<polygon fill="#0f2a20" stroke="#39ffb0" stroke-width="2.5" points="520,-187 181,-187 181,-89 520,-89 520,-187"/>
<text text-anchor="middle" x="350.5" y="-171.8" font-family="Helvetica,sans-Serif" font-size="14.00" fill="#dfe6ee">Two decisions, both from CONTRIBUTING.md&#39;s</text>
<text text-anchor="middle" x="350.5" y="-156.8" font-family="Helvetica,sans-Serif" font-size="14.00" fill="#dfe6ee">own guidance:</text>
<text text-anchor="middle" x="350.5" y="-141.8" font-family="Helvetica,sans-Serif" font-size="14.00" fill="#dfe6ee">1. Do NOT open a competing duplicate PR</text>
<text text-anchor="middle" x="350.5" y="-126.8" font-family="Helvetica,sans-Serif" font-size="14.00" fill="#dfe6ee">2. DO fix the shared bug locally —</text>
<text text-anchor="middle" x="350.5" y="-111.8" font-family="Helvetica,sans-Serif" font-size="14.00" fill="#dfe6ee"> &#160;&#160;gate on consecutive_parse_failures /</text>
<text text-anchor="middle" x="350.5" y="-96.8" font-family="Helvetica,sans-Serif" font-size="14.00" fill="#dfe6ee"> &#160;&#160;consecutive_transport_failures == 0</text>
</g>
<!-- shared&#45;&gt;action -->
<g id="edge5" class="edge">
<title>shared&#45;&gt;action</title>
<path fill="none" stroke="#39ffb0" stroke-width="1.5" d="M350.5,-222.63C350.5,-214.19 350.5,-205.67 350.5,-197.48"/>
<polygon fill="#39ffb0" stroke="#39ffb0" stroke-width="1.5" points="354,-197.3 350.5,-187.3 347,-197.3 354,-197.3"/>
</g>
<!-- verify -->
<g id="node7" class="node">
<title>verify</title>
<polygon fill="#152a3a" stroke="#39d0ff" points="580,-53 115,-53 115,0 586,0 586,-47 580,-53"/>
<polyline fill="none" stroke="#39d0ff" points="580,-53 580,-47 "/>
<polyline fill="none" stroke="#39d0ff" points="586,-47 580,-47 "/>
<text text-anchor="middle" x="350.5" y="-37.8" font-family="Helvetica,sans-Serif" font-size="14.00" fill="#dfe6ee">Verified: 5 unit cases (real reason / transport failure / parse</text>
<text text-anchor="middle" x="350.5" y="-22.8" font-family="Helvetica,sans-Serif" font-size="14.00" fill="#dfe6ee">failure / placeholder / no reason) all behave correctly; full existing</text>
<text text-anchor="middle" x="350.5" y="-7.8" font-family="Helvetica,sans-Serif" font-size="14.00" fill="#dfe6ee">suite (tests/hermes_cli/test_goals.py, 45 tests) still passes.</text>
</g>
<!-- action&#45;&gt;verify -->
</g>
</svg>
