<?xml version="1.0" encoding="UTF-8" standalone="no"?>
<!DOCTYPE svg PUBLIC "-//W3C//DTD SVG 1.1//EN"
 "http://www.w3.org/Graphics/SVG/1.1/DTD/svg11.dtd">
<!-- Generated by graphviz version 2.43.0 (0)
 -->
<!-- Title: PinToSonnetAndReuseCredentials Pages: 1 -->
<svg width="1234pt" height="224pt"
 viewBox="0.00 0.00 1234.00 224.00" xmlns="http://www.w3.org/2000/svg" xmlns:xlink="http://www.w3.org/1999/xlink">
<g id="graph0" class="graph" transform="scale(1 1) rotate(0) translate(4 220)">
<title>PinToSonnetAndReuseCredentials</title>
<polygon fill="#0a0e12" stroke="transparent" points="-4,4 -4,-220 1230,-220 1230,4 -4,4"/>
<text text-anchor="middle" x="613" y="-196" font-family="Helvetica,sans-Serif" font-size="20.00" fill="#dfe6ee">The fix: pin delegation, reuse an already&#45;live credential pool</text>
<g id="clust1" class="cluster">
<title>cluster_existing</title>
<polygon fill="#0d1a22" stroke="#39d0ff" stroke-dasharray="5,2" points="415.5,-78 415.5,-178 1118.5,-178 1118.5,-78 415.5,-78"/>
<text text-anchor="middle" x="767" y="-158" font-family="Helvetica,sans-Serif" font-size="20.00" fill="#39d0ff">Already live before this change</text>
</g>
<!-- config -->
<g id="node1" class="node">
<title>config</title>
<polygon fill="#0f2a20" stroke="#39ffb0" stroke-width="2.5" points="204,-107 0,-107 0,-39 204,-39 204,-107"/>
<text text-anchor="middle" x="102" y="-91.8" font-family="Helvetica,sans-Serif" font-size="14.00" fill="#dfe6ee">~/.hermes/config.yaml</text>
<text text-anchor="middle" x="102" y="-76.8" font-family="Helvetica,sans-Serif" font-size="14.00" fill="#dfe6ee">delegation:</text>
<text text-anchor="middle" x="102" y="-61.8" font-family="Helvetica,sans-Serif" font-size="14.00" fill="#dfe6ee"> &#160;provider: anthropic</text>
<text text-anchor="middle" x="102" y="-46.8" font-family="Helvetica,sans-Serif" font-size="14.00" fill="#dfe6ee"> &#160;model: claude&#45;sonnet&#45;4&#45;6</text>
</g>
<!-- authjson -->
<g id="node2" class="node">
<title>authjson</title>
<polygon fill="#152a3a" stroke="#39d0ff" points="623.5,-139.5 423.5,-139.5 423.5,-86.5 623.5,-86.5 623.5,-139.5"/>
<text text-anchor="middle" x="523.5" y="-124.3" font-family="Helvetica,sans-Serif" font-size="14.00" fill="#dfe6ee">~/.hermes/auth.json</text>
<text text-anchor="middle" x="523.5" y="-109.3" font-family="Helvetica,sans-Serif" font-size="14.00" fill="#dfe6ee">credential_pool.anthropic</text>
<text text-anchor="middle" x="523.5" y="-94.3" font-family="Helvetica,sans-Serif" font-size="14.00" fill="#dfe6ee">(real OAuth/API credential)</text>
</g>
<!-- config&#45;&gt;authjson -->
<g id="edge2" class="edge">
<title>config&#45;&gt;authjson</title>
<path fill="none" stroke="#39ffb0" stroke-width="2.5" d="M204.01,-82.63C267.19,-88.66 348.54,-96.41 413.22,-102.58"/>
<polygon fill="#39ffb0" stroke="#39ffb0" stroke-width="2.5" points="413.16,-106.09 423.45,-103.56 413.83,-99.12 413.16,-106.09"/>
<text text-anchor="middle" x="303.5" y="-131.8" font-family="Helvetica,sans-Serif" font-size="14.00" fill="#ffa93a">delegate_task now</text>
<text text-anchor="middle" x="303.5" y="-116.8" font-family="Helvetica,sans-Serif" font-size="14.00" fill="#ffa93a">reuses the SAME pool</text>
<text text-anchor="middle" x="303.5" y="-101.8" font-family="Helvetica,sans-Serif" font-size="14.00" fill="#ffa93a">no new API key needed</text>
</g>
<!-- child -->
<g id="node4" class="node">
<title>child</title>
<polygon fill="#0f2a20" stroke="#39ffb0" stroke-width="2.5" points="644,-68 403,-68 403,0 644,0 644,-68"/>
<text text-anchor="middle" x="523.5" y="-52.8" font-family="Helvetica,sans-Serif" font-size="14.00" fill="#dfe6ee">delegate_task child now runs on</text>
<text text-anchor="middle" x="523.5" y="-37.8" font-family="Helvetica,sans-Serif" font-size="14.00" fill="#dfe6ee">Claude Sonnet 4.6 (Anthropic)</text>
<text text-anchor="middle" x="523.5" y="-22.8" font-family="Helvetica,sans-Serif" font-size="14.00" fill="#dfe6ee">1M context / 64K output</text>
<text text-anchor="middle" x="523.5" y="-7.8" font-family="Helvetica,sans-Serif" font-size="14.00" fill="#dfe6ee">$3 / $15 per M tokens in/out</text>
</g>
<!-- config&#45;&gt;child -->
<g id="edge3" class="edge">
<title>config&#45;&gt;child</title>
<path fill="none" stroke="#39ffb0" stroke-width="1.5" d="M204.01,-63.61C260.74,-58.34 332.13,-51.7 392.94,-46.05"/>
<polygon fill="#39ffb0" stroke="#39ffb0" stroke-width="1.5" points="393.36,-49.52 402.99,-45.11 392.71,-42.55 393.36,-49.52"/>
</g>
<!-- goaljudge -->
<g id="node3" class="node">
<title>goaljudge</title>
<polygon fill="#152a3a" stroke="#39d0ff" points="1110.5,-139.5 889.5,-139.5 889.5,-86.5 1110.5,-86.5 1110.5,-139.5"/>
<text text-anchor="middle" x="1000" y="-124.3" font-family="Helvetica,sans-Serif" font-size="14.00" fill="#dfe6ee">auxiliary.goal_judge</text>
<text text-anchor="middle" x="1000" y="-109.3" font-family="Helvetica,sans-Serif" font-size="14.00" fill="#dfe6ee">already using this same pool</text>
<text text-anchor="middle" x="1000" y="-94.3" font-family="Helvetica,sans-Serif" font-size="14.00" fill="#dfe6ee">(claude&#45;haiku&#45;4&#45;5&#45;20251001)</text>
</g>
<!-- authjson&#45;&gt;goaljudge -->
<g id="edge1" class="edge">
<title>authjson&#45;&gt;goaljudge</title>
<path fill="none" stroke="#39ffb0" stroke-width="1.5" d="M623.68,-113C697.91,-113 799.8,-113 878.69,-113"/>
<polygon fill="#39ffb0" stroke="#39ffb0" stroke-width="1.5" points="879.17,-116.5 889.17,-113 879.17,-109.5 879.17,-116.5"/>
<text text-anchor="middle" x="709" y="-116.8" font-family="Helvetica,sans-Serif" font-size="14.00" fill="#ffa93a">already wired</text>
</g>
<!-- verify -->
<g id="node5" class="node">
<title>verify</title>
<polygon fill="#152a3a" stroke="#39d0ff" points="1220,-68 774,-68 774,0 1226,0 1226,-62 1220,-68"/>
<polyline fill="none" stroke="#39d0ff" points="1220,-68 1220,-62 "/>
<polyline fill="none" stroke="#39d0ff" points="1226,-62 1220,-62 "/>
<text text-anchor="middle" x="1000" y="-52.8" font-family="Helvetica,sans-Serif" font-size="14.00" fill="#dfe6ee">Verified live, not just config read&#45;back: a real one&#45;shot</text>
<text text-anchor="middle" x="1000" y="-37.8" font-family="Helvetica,sans-Serif" font-size="14.00" fill="#dfe6ee">delegate_task trigger produced a delegation manifest showing</text>
<text text-anchor="middle" x="1000" y="-22.8" font-family="Helvetica,sans-Serif" font-size="14.00" fill="#dfe6ee">&quot;model&quot;: &quot;claude&#45;sonnet&#45;4&#45;6&quot;, &quot;provider&quot;: &quot;anthropic&quot; —</text>
<text text-anchor="middle" x="1000" y="-7.8" font-family="Helvetica,sans-Serif" font-size="14.00" fill="#dfe6ee">completed in 1.27s, real API round&#45;trip confirmed.</text>
</g>
<!-- child&#45;&gt;verify -->
</g>
</svg>
