<?xml version="1.0" encoding="UTF-8" standalone="no"?>
<!DOCTYPE svg PUBLIC "-//W3C//DTD SVG 1.1//EN"
 "http://www.w3.org/Graphics/SVG/1.1/DTD/svg11.dtd">
<!-- Generated by graphviz version 2.43.0 (0)
 -->
<!-- Title: GPUPassthrough Pages: 1 -->
<svg width="771pt" height="616pt"
 viewBox="0.00 0.00 770.50 616.00" xmlns="http://www.w3.org/2000/svg" xmlns:xlink="http://www.w3.org/1999/xlink">
<g id="graph0" class="graph" transform="scale(1 1) rotate(0) translate(4 612)">
<title>GPUPassthrough</title>
<polygon fill="#0a0e12" stroke="transparent" points="-4,4 -4,-612 766.5,-612 766.5,4 -4,4"/>
<text text-anchor="middle" x="381.25" y="-586.4" font-family="Helvetica,sans-Serif" font-size="22.00" fill="#dfe6ee">GPU passthrough into the sandbox: before / after</text>
<g id="clust1" class="cluster">
<title>cluster_before</title>
<polygon fill="#2a0d0d" stroke="#ff4d4d" stroke-dasharray="5,2" points="8,-297.5 8,-568 368,-568 368,-297.5 8,-297.5"/>
<text text-anchor="middle" x="188" y="-546.4" font-family="Helvetica,sans-Serif" font-size="22.00" fill="#ff4d4d">BEFORE</text>
</g>
<g id="clust2" class="cluster">
<title>cluster_after</title>
<polygon fill="#0d2a1a" stroke="#39ffb0" stroke-dasharray="5,2" points="376,-111 376,-568 736,-568 736,-111 376,-111"/>
<text text-anchor="middle" x="556" y="-546.4" font-family="Helvetica,sans-Serif" font-size="22.00" fill="#39ffb0">AFTER (this session)</text>
</g>
<!-- b_args -->
<g id="node1" class="node">
<title>b_args</title>
<polygon fill="#2a0d0d" stroke="#ff4d4d" stroke-width="1.5" points="354,-528 16,-528 16,-475 360,-475 360,-522 354,-528"/>
<polyline fill="none" stroke="#ff4d4d" stroke-width="1.5" points="354,-528 354,-522 "/>
<polyline fill="none" stroke="#ff4d4d" stroke-width="1.5" points="360,-522 354,-522 "/>
<text text-anchor="middle" x="188" y="-512.8" font-family="Helvetica,sans-Serif" font-size="14.00" fill="#dfe6ee">docker_extra_args:</text>
<text text-anchor="middle" x="188" y="-497.8" font-family="Helvetica,sans-Serif" font-size="14.00" fill="#dfe6ee"> &#160;&#45;&#45;add&#45;host=host.docker.internal:host&#45;gateway</text>
<text text-anchor="middle" x="188" y="-482.8" font-family="Helvetica,sans-Serif" font-size="14.00" fill="#dfe6ee">(no &#45;&#45;gpus flag)</text>
</g>
<!-- b_container -->
<g id="node2" class="node">
<title>b_container</title>
<polygon fill="#2a0d0d" stroke="#ff4d4d" stroke-width="1.5" points="272,-439 104,-439 104,-386 272,-386 272,-439"/>
<text text-anchor="middle" x="188" y="-423.8" font-family="Helvetica,sans-Serif" font-size="14.00" fill="#dfe6ee">sandbox container</text>
<text text-anchor="middle" x="188" y="-408.8" font-family="Helvetica,sans-Serif" font-size="14.00" fill="#dfe6ee">NO GPU device nodes</text>
<text text-anchor="middle" x="188" y="-393.8" font-family="Helvetica,sans-Serif" font-size="14.00" fill="#dfe6ee">NO nvidia&#45;smi binary</text>
</g>
<!-- b_args&#45;&gt;b_container -->
<g id="edge1" class="edge">
<title>b_args&#45;&gt;b_container</title>
<path fill="none" stroke="#39ffb0" stroke-width="1.5" d="M188,-474.87C188,-466.89 188,-457.93 188,-449.38"/>
<polygon fill="#39ffb0" stroke="#39ffb0" stroke-width="1.5" points="191.5,-449.25 188,-439.25 184.5,-449.25 191.5,-449.25"/>
</g>
<!-- b_result -->
<g id="node3" class="node">
<title>b_result</title>
<polygon fill="#3a0d0d" stroke="#ff4d4d" stroke-width="1.5" points="356.27,-316.04 356.27,-330.96 257.7,-341.5 118.3,-341.5 19.73,-330.96 19.73,-316.04 118.3,-305.5 257.7,-305.5 356.27,-316.04"/>
<text text-anchor="middle" x="188" y="-319.8" font-family="Helvetica,sans-Serif" font-size="14.00" fill="#ffdada">nvidia&#45;smi: command not found</text>
</g>
<!-- b_container&#45;&gt;b_result -->
<g id="edge2" class="edge">
<title>b_container&#45;&gt;b_result</title>
<path fill="none" stroke="#39ffb0" stroke-width="1.5" d="M188,-385.87C188,-375.19 188,-362.78 188,-351.92"/>
<polygon fill="#39ffb0" stroke="#39ffb0" stroke-width="1.5" points="191.5,-351.7 188,-341.7 184.5,-351.7 191.5,-351.7"/>
</g>
<!-- a_args -->
<g id="node4" class="node">
<title>a_args</title>
<polygon fill="#0d2a1a" stroke="#39ffb0" stroke-width="1.5" points="722,-528 384,-528 384,-475 728,-475 728,-522 722,-528"/>
<polyline fill="none" stroke="#39ffb0" stroke-width="1.5" points="722,-528 722,-522 "/>
<polyline fill="none" stroke="#39ffb0" stroke-width="1.5" points="728,-522 722,-522 "/>
<text text-anchor="middle" x="556" y="-512.8" font-family="Helvetica,sans-Serif" font-size="14.00" fill="#dfe6ee">docker_extra_args:</text>
<text text-anchor="middle" x="556" y="-497.8" font-family="Helvetica,sans-Serif" font-size="14.00" fill="#dfe6ee"> &#160;&#45;&#45;add&#45;host=host.docker.internal:host&#45;gateway</text>
<text text-anchor="middle" x="556" y="-482.8" font-family="Helvetica,sans-Serif" font-size="14.00" fill="#dfe6ee"> &#160;&#45;&#45;gpus=all</text>
</g>
<!-- toolkit -->
<g id="node5" class="node">
<title>toolkit</title>
<polygon fill="#152a3a" stroke="#39d0ff" stroke-width="1.5" points="680.5,-439 431.5,-439 431.5,-386 680.5,-386 680.5,-439"/>
<text text-anchor="middle" x="556" y="-423.8" font-family="Helvetica,sans-Serif" font-size="14.00" fill="#dfe6ee">NVIDIA Container Toolkit</text>
<text text-anchor="middle" x="556" y="-408.8" font-family="Helvetica,sans-Serif" font-size="14.00" fill="#dfe6ee">(nvidia&#45;container&#45;toolkit 1.20.0&#45;1,</text>
<text text-anchor="middle" x="556" y="-393.8" font-family="Helvetica,sans-Serif" font-size="14.00" fill="#dfe6ee">already installed on host)</text>
</g>
<!-- a_args&#45;&gt;toolkit -->
<g id="edge3" class="edge">
<title>a_args&#45;&gt;toolkit</title>
<path fill="none" stroke="#39ffb0" stroke-width="1.5" d="M556,-474.87C556,-466.89 556,-457.93 556,-449.38"/>
<polygon fill="#39ffb0" stroke="#39ffb0" stroke-width="1.5" points="559.5,-449.25 556,-439.25 552.5,-449.25 559.5,-449.25"/>
</g>
<!-- inject -->
<g id="node6" class="node">
<title>inject</title>
<polygon fill="#152a3a" stroke="#39d0ff" stroke-width="1.5" points="687.5,-350 424.5,-350 424.5,-297 687.5,-297 687.5,-350"/>
<text text-anchor="middle" x="556" y="-334.8" font-family="Helvetica,sans-Serif" font-size="14.00" fill="#dfe6ee">auto&#45;injects driver libs +</text>
<text text-anchor="middle" x="556" y="-319.8" font-family="Helvetica,sans-Serif" font-size="14.00" fill="#dfe6ee">CLI tools (nvidia&#45;smi) into container</text>
<text text-anchor="middle" x="556" y="-304.8" font-family="Helvetica,sans-Serif" font-size="14.00" fill="#dfe6ee">at docker&#45;run time</text>
</g>
<!-- toolkit&#45;&gt;inject -->
<g id="edge4" class="edge">
<title>toolkit&#45;&gt;inject</title>
<path fill="none" stroke="#39ffb0" stroke-width="1.5" d="M556,-385.87C556,-377.89 556,-368.93 556,-360.38"/>
<polygon fill="#39ffb0" stroke="#39ffb0" stroke-width="1.5" points="559.5,-360.25 556,-350.25 552.5,-360.25 559.5,-360.25"/>
</g>
<!-- a_container -->
<g id="node7" class="node">
<title>a_container</title>
<polygon fill="#0f2a20" stroke="#39ffb0" stroke-width="1.5" points="630.5,-261 481.5,-261 481.5,-208 630.5,-208 630.5,-261"/>
<text text-anchor="middle" x="556" y="-245.8" font-family="Helvetica,sans-Serif" font-size="14.00" fill="#dfe6ee">sandbox container</text>
<text text-anchor="middle" x="556" y="-230.8" font-family="Helvetica,sans-Serif" font-size="14.00" fill="#dfe6ee">/dev/nvidia* visible</text>
<text text-anchor="middle" x="556" y="-215.8" font-family="Helvetica,sans-Serif" font-size="14.00" fill="#dfe6ee">nvidia&#45;smi present</text>
</g>
<!-- inject&#45;&gt;a_container -->
<g id="edge5" class="edge">
<title>inject&#45;&gt;a_container</title>
<path fill="none" stroke="#39ffb0" stroke-width="1.5" d="M556,-296.87C556,-288.89 556,-279.93 556,-271.38"/>
<polygon fill="#39ffb0" stroke="#39ffb0" stroke-width="1.5" points="559.5,-271.25 556,-261.25 552.5,-271.25 559.5,-271.25"/>
</g>
<!-- a_result -->
<g id="node8" class="node">
<title>a_result</title>
<polygon fill="#0f2a20" stroke="#39ffb0" stroke-width="1.5" points="683,-172 429,-172 429,-119 683,-119 683,-172"/>
<text text-anchor="middle" x="556" y="-156.8" font-family="Helvetica,sans-Serif" font-size="14.00" fill="#dfe6ee">nvidia&#45;smi works:</text>
<text text-anchor="middle" x="556" y="-141.8" font-family="Helvetica,sans-Serif" font-size="14.00" fill="#dfe6ee">both GPUs correctly reported</text>
<text text-anchor="middle" x="556" y="-126.8" font-family="Helvetica,sans-Serif" font-size="14.00" fill="#dfe6ee">(verified with real docker run test)</text>
</g>
<!-- a_container&#45;&gt;a_result -->
<g id="edge6" class="edge">
<title>a_container&#45;&gt;a_result</title>
<path fill="none" stroke="#39ffb0" stroke-width="1.5" d="M556,-207.87C556,-199.89 556,-190.93 556,-182.38"/>
<polygon fill="#39ffb0" stroke="#39ffb0" stroke-width="1.5" points="559.5,-182.25 556,-172.25 552.5,-182.25 559.5,-182.25"/>
</g>
<!-- note -->
<g id="node9" class="node">
<title>note</title>
<polygon fill="#556070" stroke="transparent" stroke-width="1.5" points="762.5,-83 349.5,-83 349.5,0 762.5,0 762.5,-83"/>
<text text-anchor="middle" x="556" y="-67.8" font-family="Helvetica,sans-Serif" font-size="14.00" fill="#8b5cf6">Deliberate trade&#45;off: widens the sandbox beyond its</text>
<text text-anchor="middle" x="556" y="-52.8" font-family="Helvetica,sans-Serif" font-size="14.00" fill="#8b5cf6">shell/file&#45;only design scope. Confirmed with the operator</text>
<text text-anchor="middle" x="556" y="-37.8" font-family="Helvetica,sans-Serif" font-size="14.00" fill="#8b5cf6">before applying. Model&#45;serving itself was never affected</text>
<text text-anchor="middle" x="556" y="-22.8" font-family="Helvetica,sans-Serif" font-size="14.00" fill="#8b5cf6">either way — it always talks host&#45;process to Ollama&#39;s API</text>
<text text-anchor="middle" x="556" y="-7.8" font-family="Helvetica,sans-Serif" font-size="14.00" fill="#8b5cf6">directly, bypassing this sandbox.</text>
</g>
<!-- a_result&#45;&gt;note -->
</g>
</svg>
