<?xml version="1.0" encoding="UTF-8" standalone="no"?>
<!DOCTYPE svg PUBLIC "-//W3C//DTD SVG 1.1//EN"
 "http://www.w3.org/Graphics/SVG/1.1/DTD/svg11.dtd">
<!-- Generated by graphviz version 2.43.0 (0)
 -->
<!-- Title: MultiGPUTopology Pages: 1 -->
<svg width="1737pt" height="716pt"
 viewBox="0.00 0.00 1737.00 715.67" xmlns="http://www.w3.org/2000/svg" xmlns:xlink="http://www.w3.org/1999/xlink">
<g id="graph0" class="graph" transform="scale(1 1) rotate(0) translate(4 711.67)">
<title>MultiGPUTopology</title>
<polygon fill="#0a0e12" stroke="transparent" points="-4,4 -4,-711.67 1733,-711.67 1733,4 -4,4"/>
<text text-anchor="middle" x="864.5" y="-686.07" font-family="Helvetica,sans-Serif" font-size="22.00" fill="#dfe6ee">Multi&#45;GPU topology: layer&#45;split (pipeline) vs. tensor/row&#45;split</text>
<g id="clust1" class="cluster">
<title>cluster_real</title>
<polygon fill="#1a1030" stroke="#8b5cf6" stroke-dasharray="5,2" points="8,-464.67 8,-667.67 532,-667.67 532,-464.67 8,-464.67"/>
<text text-anchor="middle" x="270" y="-646.07" font-family="Helvetica,sans-Serif" font-size="22.00" fill="#8b5cf6">Real topology on the&#45;box (nvidia&#45;smi topo &#45;m)</text>
</g>
<g id="clust2" class="cluster">
<title>cluster_layer</title>
<polygon fill="#0d2a1a" stroke="#39ffb0" stroke-dasharray="5,2" points="540,-8 540,-548.67 1080,-548.67 1080,-8 540,-8"/>
<text text-anchor="middle" x="810" y="-527.07" font-family="Helvetica,sans-Serif" font-size="22.00" fill="#39ffb0">Ollama default: layer&#45;split (pipeline) parallelism</text>
</g>
<g id="clust3" class="cluster">
<title>cluster_row</title>
<polygon fill="#2a0d0d" stroke="#ff4d4d" stroke-dasharray="5,2" points="1088,-317 1088,-667.67 1721,-667.67 1721,-317 1088,-317"/>
<text text-anchor="middle" x="1404.5" y="-646.07" font-family="Helvetica,sans-Serif" font-size="22.00" fill="#ff4d4d">NOT used by default: tensor/row&#45;split (&#45;&#45;split&#45;mode row)</text>
</g>
<!-- cpu -->
<g id="node1" class="node">
<title>cpu</title>
<polygon fill="#241a3a" stroke="#8b5cf6" stroke-width="1.5" points="461,-627.67 323,-627.67 319,-623.67 319,-589.67 457,-589.67 461,-593.67 461,-627.67"/>
<polyline fill="none" stroke="#8b5cf6" stroke-width="1.5" points="457,-623.67 319,-623.67 "/>
<polyline fill="none" stroke="#8b5cf6" stroke-width="1.5" points="457,-623.67 457,-589.67 "/>
<polyline fill="none" stroke="#8b5cf6" stroke-width="1.5" points="457,-623.67 461,-627.67 "/>
<text text-anchor="middle" x="390" y="-612.47" font-family="Helvetica,sans-Serif" font-size="14.00" fill="#dfe6ee">Ryzen 9 7950X3D</text>
<text text-anchor="middle" x="390" y="-597.47" font-family="Helvetica,sans-Serif" font-size="14.00" fill="#dfe6ee">PCIe root complex</text>
</g>
<!-- g0 -->
<g id="node2" class="node">
<title>g0</title>
<polygon fill="#241a3a" stroke="#8b5cf6" stroke-width="1.5" points="524,-508.67 292,-508.67 288,-504.67 288,-472.67 520,-472.67 524,-476.67 524,-508.67"/>
<polyline fill="none" stroke="#8b5cf6" stroke-width="1.5" points="520,-504.67 288,-504.67 "/>
<polyline fill="none" stroke="#8b5cf6" stroke-width="1.5" points="520,-504.67 520,-472.67 "/>
<polyline fill="none" stroke="#8b5cf6" stroke-width="1.5" points="520,-504.67 524,-508.67 "/>
<text text-anchor="middle" x="406" y="-486.97" font-family="Helvetica,sans-Serif" font-size="14.00" fill="#dfe6ee">GPU0: RTX 4080 SUPER (16GB)</text>
</g>
<!-- cpu&#45;&gt;g0 -->
<g id="edge1" class="edge">
<title>cpu&#45;&gt;g0</title>
<path fill="none" stroke="#8b5cf6" stroke-width="1.5" d="M392.5,-589.54C395.11,-570.6 399.24,-540.65 402.25,-518.86"/>
<polygon fill="#8b5cf6" stroke="#8b5cf6" stroke-width="1.5" points="405.72,-519.29 403.62,-508.91 398.79,-518.34 405.72,-519.29"/>
<text text-anchor="middle" x="410.5" y="-560.47" font-family="Helvetica,sans-Serif" font-size="14.00" fill="#ffa93a">PHB</text>
</g>
<!-- g1 -->
<g id="node3" class="node">
<title>g1</title>
<polygon fill="#241a3a" stroke="#8b5cf6" stroke-width="1.5" points="269.5,-508.67 88.5,-508.67 84.5,-504.67 84.5,-472.67 265.5,-472.67 269.5,-476.67 269.5,-508.67"/>
<polyline fill="none" stroke="#8b5cf6" stroke-width="1.5" points="265.5,-504.67 84.5,-504.67 "/>
<polyline fill="none" stroke="#8b5cf6" stroke-width="1.5" points="265.5,-504.67 265.5,-472.67 "/>
<polyline fill="none" stroke="#8b5cf6" stroke-width="1.5" points="265.5,-504.67 269.5,-508.67 "/>
<text text-anchor="middle" x="177" y="-486.97" font-family="Helvetica,sans-Serif" font-size="14.00" fill="#dfe6ee">GPU1: RTX 5070 (12GB)</text>
</g>
<!-- cpu&#45;&gt;g1 -->
<g id="edge2" class="edge">
<title>cpu&#45;&gt;g1</title>
<path fill="none" stroke="#8b5cf6" stroke-width="1.5" d="M355.4,-589.52C333.45,-577.94 304.49,-562.56 279,-548.67 258.18,-537.32 235.11,-524.45 216.19,-513.82"/>
<polygon fill="#8b5cf6" stroke="#8b5cf6" stroke-width="1.5" points="217.69,-510.65 207.26,-508.8 214.26,-516.75 217.69,-510.65"/>
<text text-anchor="middle" x="335.5" y="-560.47" font-family="Helvetica,sans-Serif" font-size="14.00" fill="#ffa93a">PHB</text>
</g>
<!-- l_g0 -->
<g id="node6" class="node">
<title>l_g0</title>
<polygon fill="#0f2a20" stroke="#39ffb0" stroke-width="1.5" points="748,-373.08 548,-373.08 548,-335.08 748,-335.08 748,-373.08"/>
<text text-anchor="middle" x="648" y="-357.88" font-family="Helvetica,sans-Serif" font-size="14.00" fill="#dfe6ee">GPU0: layers 0..N</text>
<text text-anchor="middle" x="648" y="-342.88" font-family="Helvetica,sans-Serif" font-size="14.00" fill="#dfe6ee">(weighted by VRAM share)</text>
</g>
<!-- g0&#45;&gt;l_g0 -->
<g id="edge9" class="edge">
<title>g0&#45;&gt;l_g0</title>
<path fill="none" stroke="#556070" stroke-width="1.5" stroke-dasharray="1,5" d="M436.65,-472.62C479.66,-448.7 558.07,-405.1 606.34,-378.25"/>
<polygon fill="#556070" stroke="#556070" stroke-width="1.5" points="608.25,-381.2 615.28,-373.28 604.84,-375.08 608.25,-381.2"/>
</g>
<!-- l_g1 -->
<g id="node7" class="node">
<title>l_g1</title>
<polygon fill="#0f2a20" stroke="#39ffb0" stroke-width="1.5" points="736.5,-244 559.5,-244 559.5,-208 736.5,-208 736.5,-244"/>
<text text-anchor="middle" x="648" y="-222.3" font-family="Helvetica,sans-Serif" font-size="14.00" fill="#dfe6ee">GPU1: layers N+1..end</text>
</g>
<!-- g1&#45;&gt;l_g1 -->
<g id="edge10" class="edge">
<title>g1&#45;&gt;l_g1</title>
<path fill="none" stroke="#556070" stroke-width="1.5" stroke-dasharray="1,5" d="M207.54,-472.64C289.82,-426.75 516.12,-300.55 608.22,-249.19"/>
<polygon fill="#556070" stroke="#556070" stroke-width="1.5" points="610.19,-252.09 617.22,-244.16 606.78,-245.98 610.19,-252.09"/>
</g>
<!-- note_nolink -->
<g id="node4" class="node">
<title>note_nolink</title>
<polygon fill="#556070" stroke="transparent" stroke-width="1.5" points="285,-627.67 47,-627.67 47,-589.67 285,-589.67 285,-627.67"/>
<text text-anchor="middle" x="166" y="-612.47" font-family="Helvetica,sans-Serif" font-size="14.00" fill="#ff9f4d">No NVLink between GPU0/GPU1</text>
<text text-anchor="middle" x="166" y="-597.47" font-family="Helvetica,sans-Serif" font-size="14.00" fill="#ff9f4d">(consumer cards, no bridge)</text>
</g>
<!-- l_in -->
<g id="node5" class="node">
<title>l_in</title>
<polygon fill="#0f2a20" stroke="#39ffb0" stroke-width="1.5" points="684,-508.67 612,-508.67 612,-472.67 684,-472.67 684,-508.67"/>
<text text-anchor="middle" x="648" y="-486.97" font-family="Helvetica,sans-Serif" font-size="14.00" fill="#dfe6ee">token in</text>
</g>
<!-- l_in&#45;&gt;l_g0 -->
<g id="edge3" class="edge">
<title>l_in&#45;&gt;l_g0</title>
<path fill="none" stroke="#39ffb0" stroke-width="1.5" d="M648,-472.62C648,-450.14 648,-410.28 648,-383.28"/>
<polygon fill="#39ffb0" stroke="#39ffb0" stroke-width="1.5" points="651.5,-383.28 648,-373.28 644.5,-383.28 651.5,-383.28"/>
<text text-anchor="middle" x="727.5" y="-434.97" font-family="Helvetica,sans-Serif" font-size="14.00" fill="#ffa93a">~16KB hidden&#45;state</text>
<text text-anchor="middle" x="727.5" y="-419.97" font-family="Helvetica,sans-Serif" font-size="14.00" fill="#ffa93a">handoff per token</text>
<text text-anchor="middle" x="727.5" y="-404.97" font-family="Helvetica,sans-Serif" font-size="14.00" fill="#ffa93a">(~0.5MB/s @ 30 tok/s)</text>
</g>
<!-- l_g0&#45;&gt;l_g1 -->
<g id="edge4" class="edge">
<title>l_g0&#45;&gt;l_g1</title>
<path fill="none" stroke="#39ffb0" stroke-width="1.5" d="M648,-335.02C648,-313.9 648,-278.74 648,-254.29"/>
<polygon fill="#39ffb0" stroke="#39ffb0" stroke-width="1.5" points="651.5,-254.22 648,-244.22 644.5,-254.22 651.5,-254.22"/>
<text text-anchor="middle" x="727.5" y="-295.8" font-family="Helvetica,sans-Serif" font-size="14.00" fill="#ffa93a">~16KB hidden&#45;state</text>
<text text-anchor="middle" x="727.5" y="-280.8" font-family="Helvetica,sans-Serif" font-size="14.00" fill="#ffa93a">handoff per token</text>
<text text-anchor="middle" x="727.5" y="-265.8" font-family="Helvetica,sans-Serif" font-size="14.00" fill="#ffa93a">(~0.5MB/s @ 30 tok/s)</text>
</g>
<!-- l_out -->
<g id="node8" class="node">
<title>l_out</title>
<polygon fill="#0f2a20" stroke="#39ffb0" stroke-width="1.5" points="715,-127 633,-127 633,-91 715,-91 715,-127"/>
<text text-anchor="middle" x="674" y="-105.3" font-family="Helvetica,sans-Serif" font-size="14.00" fill="#dfe6ee">token out</text>
</g>
<!-- l_g1&#45;&gt;l_out -->
<g id="edge5" class="edge">
<title>l_g1&#45;&gt;l_out</title>
<path fill="none" stroke="#39ffb0" stroke-width="1.5" d="M651.95,-207.53C656.17,-188.85 662.93,-158.97 667.85,-137.2"/>
<polygon fill="#39ffb0" stroke="#39ffb0" stroke-width="1.5" points="671.31,-137.78 670.1,-127.25 664.48,-136.24 671.31,-137.78"/>
<text text-anchor="middle" x="744.5" y="-178.8" font-family="Helvetica,sans-Serif" font-size="14.00" fill="#ffa93a">~16KB hidden&#45;state</text>
<text text-anchor="middle" x="744.5" y="-163.8" font-family="Helvetica,sans-Serif" font-size="14.00" fill="#ffa93a">handoff per token</text>
<text text-anchor="middle" x="744.5" y="-148.8" font-family="Helvetica,sans-Serif" font-size="14.00" fill="#ffa93a">(~0.5MB/s @ 30 tok/s)</text>
</g>
<!-- l_verdict -->
<g id="node9" class="node">
<title>l_verdict</title>
<polygon fill="#0f2a20" stroke="#39ffb0" stroke-width="1.5" points="832,-54 548,-54 548,-16 832,-16 832,-54"/>
<text text-anchor="middle" x="690" y="-38.8" font-family="Helvetica,sans-Serif" font-size="14.00" fill="#39ffb0">PCIe bandwidth need: negligible.</text>
<text text-anchor="middle" x="690" y="-23.8" font-family="Helvetica,sans-Serif" font-size="14.00" fill="#39ffb0">PHB&#45;only topology is a non&#45;issue here.</text>
</g>
<!-- l_out&#45;&gt;l_verdict -->
<!-- r_tensor -->
<g id="node10" class="node">
<title>r_tensor</title>
<polygon fill="#2a0d0d" stroke="#ff4d4d" stroke-width="1.5" points="1490,-627.67 1318,-627.67 1318,-589.67 1490,-589.67 1490,-627.67"/>
<text text-anchor="middle" x="1404" y="-612.47" font-family="Helvetica,sans-Serif" font-size="14.00" fill="#dfe6ee">single tensor op</text>
<text text-anchor="middle" x="1404" y="-597.47" font-family="Helvetica,sans-Serif" font-size="14.00" fill="#dfe6ee">split across both GPUs</text>
</g>
<!-- r_rt -->
<g id="node11" class="node">
<title>r_rt</title>
<polygon fill="#2a0d0d" stroke="#ff4d4d" stroke-width="1.5" points="1498,-517.17 1310,-517.17 1310,-464.17 1498,-464.17 1498,-517.17"/>
<text text-anchor="middle" x="1404" y="-501.97" font-family="Helvetica,sans-Serif" font-size="14.00" fill="#dfe6ee">round&#45;trips every op</text>
<text text-anchor="middle" x="1404" y="-486.97" font-family="Helvetica,sans-Serif" font-size="14.00" fill="#dfe6ee">(floods PCIe bus,</text>
<text text-anchor="middle" x="1404" y="-471.97" font-family="Helvetica,sans-Serif" font-size="14.00" fill="#dfe6ee">needs NVLink to be fast)</text>
</g>
<!-- r_tensor&#45;&gt;r_rt -->
<g id="edge7" class="edge">
<title>r_tensor&#45;&gt;r_rt</title>
<path fill="none" stroke="#39ffb0" stroke-width="1.5" d="M1404,-589.54C1404,-573.05 1404,-548.21 1404,-527.69"/>
<polygon fill="#39ffb0" stroke="#39ffb0" stroke-width="1.5" points="1407.5,-527.41 1404,-517.41 1400.5,-527.41 1407.5,-527.41"/>
</g>
<!-- r_verdict -->
<g id="node12" class="node">
<title>r_verdict</title>
<polygon fill="#3a0d0d" stroke="#ff4d4d" stroke-width="1.5" points="1586.85,-342 1586.85,-366.17 1479.74,-383.25 1328.26,-383.25 1221.15,-366.17 1221.15,-342 1328.26,-324.92 1479.74,-324.92 1586.85,-342"/>
<text text-anchor="middle" x="1404" y="-357.88" font-family="Helvetica,sans-Serif" font-size="14.00" fill="#ffdada">On plain PCIe (no NVLink):</text>
<text text-anchor="middle" x="1404" y="-342.88" font-family="Helvetica,sans-Serif" font-size="14.00" fill="#ffdada">usually SLOWER than layer&#45;split</text>
</g>
<!-- r_rt&#45;&gt;r_verdict -->
<g id="edge8" class="edge">
<title>r_rt&#45;&gt;r_verdict</title>
<path fill="none" stroke="#39ffb0" stroke-width="1.5" d="M1404,-464.04C1404,-444.15 1404,-416.27 1404,-393.69"/>
<polygon fill="#39ffb0" stroke="#39ffb0" stroke-width="1.5" points="1407.5,-393.41 1404,-383.41 1400.5,-393.41 1407.5,-393.41"/>
</g>
</g>
</svg>
