<?xml version="1.0" encoding="UTF-8" standalone="no"?>
<!DOCTYPE svg PUBLIC "-//W3C//DTD SVG 1.1//EN"
 "http://www.w3.org/Graphics/SVG/1.1/DTD/svg11.dtd">
<!-- Generated by graphviz version 2.43.0 (0)
 -->
<!-- Title: ModelLoadingLifecycle Pages: 1 -->
<svg width="2607pt" height="267pt"
 viewBox="0.00 0.00 2607.43 267.00" xmlns="http://www.w3.org/2000/svg" xmlns:xlink="http://www.w3.org/1999/xlink">
<g id="graph0" class="graph" transform="scale(1 1) rotate(0) translate(4 263)">
<title>ModelLoadingLifecycle</title>
<polygon fill="#0a0e12" stroke="transparent" points="-4,4 -4,-263 2603.43,-263 2603.43,4 -4,4"/>
<text text-anchor="middle" x="1299.72" y="-239" font-family="Helvetica,sans-Serif" font-size="20.00" fill="#dfe6ee">Model&#45;loading lifecycle: thrashing root cause &#45;&gt; fix &#45;&gt; steady state</text>
<g id="clust1" class="cluster">
<title>cluster_bad</title>
<polygon fill="#2a0d0d" stroke="#ff4d4d" stroke-dasharray="5,2" points="8,-93 8,-221 877.43,-221 877.43,-93 8,-93"/>
<text text-anchor="middle" x="442.72" y="-201" font-family="Helvetica,sans-Serif" font-size="20.00" fill="#ff4d4d">BEFORE: thrashing (MAX_LOADED_MODELS=2)</text>
</g>
<g id="clust2" class="cluster">
<title>cluster_fix</title>
<polygon fill="#241a0d" stroke="#ffa93a" stroke-dasharray="5,2" points="1048.43,-100 1048.43,-214 1959.43,-214 1959.43,-100 1048.43,-100"/>
<text text-anchor="middle" x="1503.93" y="-194" font-family="Helvetica,sans-Serif" font-size="20.00" fill="#ffa93a">FIX</text>
</g>
<g id="clust3" class="cluster">
<title>cluster_good</title>
<polygon fill="#0d2a1a" stroke="#39ffb0" stroke-dasharray="5,2" points="1980.43,-8 1980.43,-198 2591.43,-198 2591.43,-8 1980.43,-8"/>
<text text-anchor="middle" x="2285.93" y="-178" font-family="Helvetica,sans-Serif" font-size="20.00" fill="#39ffb0">AFTER: steady state (verified via journalctl)</text>
</g>
<!-- turn -->
<g id="node1" class="node">
<title>turn</title>
<polygon fill="#3a0d0d" stroke="#ff4d4d" stroke-width="1.5" points="335,-161 16,-161 16,-123 335,-123 335,-161"/>
<text text-anchor="middle" x="175.5" y="-145.8" font-family="Helvetica,sans-Serif" font-size="14.00" fill="#dfe6ee">Every turn needs 3 models:</text>
<text text-anchor="middle" x="175.5" y="-130.8" font-family="Helvetica,sans-Serif" font-size="14.00" fill="#dfe6ee">chat model + mem0 extractor + embedder</text>
</g>
<!-- slot -->
<g id="node2" class="node">
<title>slot</title>
<polygon fill="#3a0d0d" stroke="#ff4d4d" stroke-width="1.5" points="537,-160 372,-160 372,-124 537,-124 537,-160"/>
<text text-anchor="middle" x="454.5" y="-138.3" font-family="Helvetica,sans-Serif" font-size="14.00" fill="#dfe6ee">Only 2 slots available</text>
</g>
<!-- turn&#45;&gt;slot -->
<g id="edge1" class="edge">
<title>turn&#45;&gt;slot</title>
<path fill="none" stroke="#39ffb0" stroke-width="1.5" d="M335.22,-142C344.26,-142 353.18,-142 361.82,-142"/>
<polygon fill="#39ffb0" stroke="#39ffb0" stroke-width="1.5" points="361.83,-145.5 371.83,-142 361.83,-138.5 361.83,-145.5"/>
</g>
<!-- evict -->
<g id="node3" class="node">
<title>evict</title>
<polygon fill="#3a0d0d" stroke="#ff4d4d" stroke-width="1.5" points="869.65,-125.17 869.65,-158.83 782.99,-182.63 660.44,-182.63 573.78,-158.83 573.78,-125.17 660.44,-101.37 782.99,-101.37 869.65,-125.17"/>
<text text-anchor="middle" x="721.72" y="-153.3" font-family="Helvetica,sans-Serif" font-size="14.00" fill="#ffdada">Active eviction thrashing:</text>
<text text-anchor="middle" x="721.72" y="-138.3" font-family="Helvetica,sans-Serif" font-size="14.00" fill="#ffdada">nemotron loaded/evicted</text>
<text text-anchor="middle" x="721.72" y="-123.3" font-family="Helvetica,sans-Serif" font-size="14.00" fill="#ffdada">313 times in 3 hours</text>
</g>
<!-- slot&#45;&gt;evict -->
<g id="edge2" class="edge">
<title>slot&#45;&gt;evict</title>
<path fill="none" stroke="#39ffb0" stroke-width="1.5" d="M537.24,-142C545.75,-142 554.6,-142 563.6,-142"/>
<polygon fill="#39ffb0" stroke="#39ffb0" stroke-width="1.5" points="563.82,-145.5 573.82,-142 563.82,-138.5 563.82,-145.5"/>
</g>
<!-- f1 -->
<g id="node4" class="node">
<title>f1</title>
<polygon fill="#2a1f0f" stroke="#ffa93a" stroke-width="1.5" points="1353.43,-160 1056.43,-160 1056.43,-124 1353.43,-124 1353.43,-160"/>
<text text-anchor="middle" x="1204.93" y="-138.3" font-family="Helvetica,sans-Serif" font-size="14.00" fill="#dfe6ee">OLLAMA_MAX_LOADED_MODELS: 2 &#45;&gt; 3</text>
</g>
<!-- evict&#45;&gt;f1 -->
<g id="edge8" class="edge">
<title>evict&#45;&gt;f1</title>
<path fill="none" stroke="#ffa93a" stroke-width="1.5" d="M869.71,-142C925.51,-142 989.27,-142 1046.03,-142"/>
<polygon fill="#ffa93a" stroke="#ffa93a" stroke-width="1.5" points="1046.18,-145.5 1056.18,-142 1046.18,-138.5 1046.18,-145.5"/>
<text text-anchor="middle" x="962.93" y="-145.8" font-family="Helvetica,sans-Serif" font-size="14.00" fill="#ffa93a">root&#45;caused and fixed</text>
</g>
<!-- f2 -->
<g id="node5" class="node">
<title>f2</title>
<polygon fill="#2a1f0f" stroke="#ffa93a" stroke-width="1.5" points="1672.43,-176 1390.43,-176 1390.43,-108 1672.43,-108 1672.43,-176"/>
<text text-anchor="middle" x="1531.43" y="-160.8" font-family="Helvetica,sans-Serif" font-size="14.00" fill="#dfe6ee">mem0 extractor moved to a</text>
<text text-anchor="middle" x="1531.43" y="-145.8" font-family="Helvetica,sans-Serif" font-size="14.00" fill="#dfe6ee">dedicated CPU&#45;pinned tag</text>
<text text-anchor="middle" x="1531.43" y="-130.8" font-family="Helvetica,sans-Serif" font-size="14.00" fill="#dfe6ee">(mem0&#45;extractor&#45;cpu,</text>
<text text-anchor="middle" x="1531.43" y="-115.8" font-family="Helvetica,sans-Serif" font-size="14.00" fill="#dfe6ee">qwen3:4b&#45;instruct base, num_gpu=0)</text>
</g>
<!-- f1&#45;&gt;f2 -->
<g id="edge3" class="edge">
<title>f1&#45;&gt;f2</title>
<path fill="none" stroke="#39ffb0" stroke-width="1.5" d="M1353.46,-142C1362.34,-142 1371.28,-142 1380.17,-142"/>
<polygon fill="#39ffb0" stroke="#39ffb0" stroke-width="1.5" points="1380.19,-145.5 1390.19,-142 1380.19,-138.5 1380.19,-145.5"/>
</g>
<!-- f3 -->
<g id="node6" class="node">
<title>f3</title>
<polygon fill="#2a1f0f" stroke="#ffa93a" stroke-width="1.5" points="1951.43,-161 1709.43,-161 1709.43,-123 1951.43,-123 1951.43,-161"/>
<text text-anchor="middle" x="1830.43" y="-145.8" font-family="Helvetica,sans-Serif" font-size="14.00" fill="#dfe6ee">OLLAMA_NUM_PARALLEL: 2 &#45;&gt; 1</text>
<text text-anchor="middle" x="1830.43" y="-130.8" font-family="Helvetica,sans-Serif" font-size="14.00" fill="#dfe6ee">(halves reserved KV&#45;cache slots)</text>
</g>
<!-- f2&#45;&gt;f3 -->
<g id="edge4" class="edge">
<title>f2&#45;&gt;f3</title>
<path fill="none" stroke="#39ffb0" stroke-width="1.5" d="M1672.67,-142C1681.41,-142 1690.2,-142 1698.89,-142"/>
<polygon fill="#39ffb0" stroke="#39ffb0" stroke-width="1.5" points="1699.06,-145.5 1709.06,-142 1699.06,-138.5 1699.06,-145.5"/>
</g>
<!-- s1 -->
<g id="node7" class="node">
<title>s1</title>
<polygon fill="#0f2a20" stroke="#39ffb0" stroke-width="1.5" points="2190.93,-160 2050.93,-160 2050.93,-124 2190.93,-124 2190.93,-160"/>
<text text-anchor="middle" x="2120.93" y="-138.3" font-family="Helvetica,sans-Serif" font-size="14.00" fill="#dfe6ee">Chat model (GPU)</text>
</g>
<!-- f3&#45;&gt;s1 -->
<g id="edge9" class="edge">
<title>f3&#45;&gt;s1</title>
<path fill="none" stroke="#39ffb0" stroke-width="1.5" d="M1951.69,-142C1981.58,-142 2012.88,-142 2040.27,-142"/>
<polygon fill="#39ffb0" stroke="#39ffb0" stroke-width="1.5" points="2040.56,-145.5 2050.56,-142 2040.56,-138.5 2040.56,-145.5"/>
</g>
<!-- s4 -->
<g id="node10" class="node">
<title>s4</title>
<polygon fill="#0f2a20" stroke="#39ffb0" stroke-width="2.5" points="2583.43,-114.5 2290.43,-114.5 2290.43,-61.5 2583.43,-61.5 2583.43,-114.5"/>
<text text-anchor="middle" x="2436.93" y="-99.3" font-family="Helvetica,sans-Serif" font-size="14.00" fill="#dfe6ee">All 3 resident simultaneously,</text>
<text text-anchor="middle" x="2436.93" y="-84.3" font-family="Helvetica,sans-Serif" font-size="14.00" fill="#dfe6ee">ZERO eviction</text>
<text text-anchor="middle" x="2436.93" y="-69.3" font-family="Helvetica,sans-Serif" font-size="14.00" fill="#dfe6ee">(clean count=1, no &quot;make room&quot; spam)</text>
</g>
<!-- s1&#45;&gt;s4 -->
<g id="edge5" class="edge">
<title>s1&#45;&gt;s4</title>
<path fill="none" stroke="#39ffb0" stroke-width="1.5" d="M2191.23,-130.08C2217.63,-125.54 2248.9,-120.16 2280.11,-114.8"/>
<polygon fill="#39ffb0" stroke="#39ffb0" stroke-width="1.5" points="2280.97,-118.2 2290.24,-113.06 2279.79,-111.3 2280.97,-118.2"/>
</g>
<!-- s2 -->
<g id="node8" class="node">
<title>s2</title>
<polygon fill="#0f2a20" stroke="#39ffb0" stroke-width="1.5" points="2249.93,-106 1991.93,-106 1991.93,-70 2249.93,-70 2249.93,-106"/>
<text text-anchor="middle" x="2120.93" y="-84.3" font-family="Helvetica,sans-Serif" font-size="14.00" fill="#dfe6ee">nomic&#45;embed&#45;text (GPU, ~397MB)</text>
</g>
<!-- s2&#45;&gt;s4 -->
<g id="edge6" class="edge">
<title>s2&#45;&gt;s4</title>
<path fill="none" stroke="#39ffb0" stroke-width="1.5" d="M2250.1,-88C2260.02,-88 2270.1,-88 2280.17,-88"/>
<polygon fill="#39ffb0" stroke="#39ffb0" stroke-width="1.5" points="2280.24,-91.5 2290.24,-88 2280.24,-84.5 2280.24,-91.5"/>
</g>
<!-- s3 -->
<g id="node9" class="node">
<title>s3</title>
<polygon fill="#0f2a20" stroke="#39ffb0" stroke-width="1.5" points="2253.43,-52 1988.43,-52 1988.43,-16 2253.43,-16 2253.43,-52"/>
<text text-anchor="middle" x="2120.93" y="-30.3" font-family="Helvetica,sans-Serif" font-size="14.00" fill="#dfe6ee">mem0&#45;extractor&#45;cpu (CPU, 0 VRAM)</text>
</g>
<!-- s3&#45;&gt;s4 -->
<g id="edge7" class="edge">
<title>s3&#45;&gt;s4</title>
<path fill="none" stroke="#39ffb0" stroke-width="1.5" d="M2226.93,-52.06C2244.07,-55.01 2262.16,-58.12 2280.22,-61.22"/>
<polygon fill="#39ffb0" stroke="#39ffb0" stroke-width="1.5" points="2279.79,-64.7 2290.24,-62.94 2280.98,-57.8 2279.79,-64.7"/>
</g>
</g>
</svg>
