<?xml version="1.0" encoding="UTF-8" standalone="no"?>
<!DOCTYPE svg PUBLIC "-//W3C//DTD SVG 1.1//EN"
 "http://www.w3.org/Graphics/SVG/1.1/DTD/svg11.dtd">
<!-- Generated by graphviz version 2.43.0 (0)
 -->
<!-- Title: GuardrailCoverage Pages: 1 -->
<svg width="1260pt" height="285pt"
 viewBox="0.00 0.00 1259.85 284.54" xmlns="http://www.w3.org/2000/svg" xmlns:xlink="http://www.w3.org/1999/xlink">
<g id="graph0" class="graph" transform="scale(1 1) rotate(0) translate(4 280.54)">
<title>GuardrailCoverage</title>
<polygon fill="#0a0e12" stroke="transparent" points="-4,4 -4,-280.54 1255.85,-280.54 1255.85,4 -4,4"/>
<text text-anchor="middle" x="625.92" y="-256.54" font-family="Helvetica,sans-Serif" font-size="20.00" fill="#dfe6ee">Guardrails layered on top of the sandbox — what&#39;s covered, what isn&#39;t</text>
<!-- deny -->
<g id="node1" class="node">
<title>deny</title>
<polygon fill="#0f2a20" stroke="#39ffb0" points="182,-246.54 15,-246.54 15,-193.54 182,-193.54 182,-246.54"/>
<text text-anchor="middle" x="98.5" y="-231.34" font-family="Helvetica,sans-Serif" font-size="14.00" fill="#dfe6ee">approvals.deny</text>
<text text-anchor="middle" x="98.5" y="-216.34" font-family="Helvetica,sans-Serif" font-size="14.00" fill="#dfe6ee">rm &#45;rf */</text>
<text text-anchor="middle" x="98.5" y="-201.34" font-family="Helvetica,sans-Serif" font-size="14.00" fill="#dfe6ee">rm &#45;rf ~/Documents/*</text>
</g>
<!-- denytest -->
<g id="node2" class="node">
<title>denytest</title>
<polygon fill="#152a3a" stroke="#39d0ff" points="625.42,-246.54 360.42,-246.54 360.42,-193.54 625.42,-193.54 625.42,-246.54"/>
<text text-anchor="middle" x="492.92" y="-231.34" font-family="Helvetica,sans-Serif" font-size="14.00" fill="#dfe6ee">Production&#45;tested against a real</text>
<text text-anchor="middle" x="492.92" y="-216.34" font-family="Helvetica,sans-Serif" font-size="14.00" fill="#dfe6ee">matching command — blocked</text>
<text text-anchor="middle" x="492.92" y="-201.34" font-family="Helvetica,sans-Serif" font-size="14.00" fill="#dfe6ee">unconditionally, any approval mode</text>
</g>
<!-- deny&#45;&gt;denytest -->
<g id="edge1" class="edge">
<title>deny&#45;&gt;denytest</title>
<path fill="none" stroke="#39ffb0" stroke-width="1.5" d="M182.24,-220.04C230.93,-220.04 293.81,-220.04 350.18,-220.04"/>
<polygon fill="#39ffb0" stroke="#39ffb0" stroke-width="1.5" points="350.26,-223.55 360.26,-220.04 350.26,-216.55 350.26,-223.55"/>
</g>
<!-- rule -->
<g id="node6" class="node">
<title>rule</title>
<polygon fill="#556070" stroke="transparent" points="1251.85,-154.04 712.85,-154.04 712.85,-116.04 1251.85,-116.04 1251.85,-154.04"/>
<text text-anchor="middle" x="982.35" y="-138.84" font-family="Helvetica,sans-Serif" font-size="14.00" fill="#8b5cf6">Operational rule: always operate under /workspace explicitly.</text>
<text text-anchor="middle" x="982.35" y="-123.84" font-family="Helvetica,sans-Serif" font-size="14.00" fill="#8b5cf6">Don&#39;t rely on default cwd — fixes both findability and checkpoint coverage.</text>
</g>
<!-- denytest&#45;&gt;rule -->
<!-- ckpt -->
<g id="node3" class="node">
<title>ckpt</title>
<polygon fill="#0f2a20" stroke="#39ffb0" points="197,-136.04 0,-136.04 0,-98.04 197,-98.04 197,-136.04"/>
<text text-anchor="middle" x="98.5" y="-120.84" font-family="Helvetica,sans-Serif" font-size="14.00" fill="#dfe6ee">checkpoints.enabled: true</text>
<text text-anchor="middle" x="98.5" y="-105.84" font-family="Helvetica,sans-Serif" font-size="14.00" fill="#dfe6ee">max_snapshots: 20</text>
</g>
<!-- ws -->
<g id="node4" class="node">
<title>ws</title>
<polygon fill="#0f2a20" stroke="#39ffb0" stroke-width="2.5" points="594.42,-175.54 391.42,-175.54 391.42,-122.54 594.42,-122.54 594.42,-175.54"/>
<text text-anchor="middle" x="492.92" y="-160.34" font-family="Helvetica,sans-Serif" font-size="14.00" fill="#dfe6ee">/workspace</text>
<text text-anchor="middle" x="492.92" y="-145.34" font-family="Helvetica,sans-Serif" font-size="14.00" fill="#dfe6ee">covered — git&#45;style</text>
<text text-anchor="middle" x="492.92" y="-130.34" font-family="Helvetica,sans-Serif" font-size="14.00" fill="#dfe6ee">snapshots before risky ops</text>
</g>
<!-- ckpt&#45;&gt;ws -->
<g id="edge2" class="edge">
<title>ckpt&#45;&gt;ws</title>
<path fill="none" stroke="#39ffb0" stroke-width="1.5" d="M197.01,-125C252.79,-129.54 322.97,-135.27 380.87,-139.99"/>
<polygon fill="#39ffb0" stroke="#39ffb0" stroke-width="1.5" points="380.9,-143.5 391.16,-140.83 381.47,-136.53 380.9,-143.5"/>
</g>
<!-- home -->
<g id="node5" class="node">
<title>home</title>
<polygon fill="#3a0d0d" stroke="#ff4d4d" points="675.77,-30.47 675.77,-73.62 568.66,-104.13 417.19,-104.13 310.08,-73.62 310.08,-30.47 417.19,0.04 568.66,0.04 675.77,-30.47"/>
<text text-anchor="middle" x="492.92" y="-70.84" font-family="Helvetica,sans-Serif" font-size="14.00" fill="#ffdada">Container&#39;s own $HOME</text>
<text text-anchor="middle" x="492.92" y="-55.84" font-family="Helvetica,sans-Serif" font-size="14.00" fill="#ffdada">(/home/pn)</text>
<text text-anchor="middle" x="492.92" y="-40.84" font-family="Helvetica,sans-Serif" font-size="14.00" fill="#ffdada">NOT covered — confirmed by</text>
<text text-anchor="middle" x="492.92" y="-25.84" font-family="Helvetica,sans-Serif" font-size="14.00" fill="#ffdada">a real `rm` there: no checkpoint</text>
</g>
<!-- ckpt&#45;&gt;home -->
<g id="edge3" class="edge">
<title>ckpt&#45;&gt;home</title>
<path fill="none" stroke="#ff4d4d" stroke-width="1.5" stroke-dasharray="5,2" d="M197.01,-100.89C233.89,-94.79 277.06,-87.63 318.82,-80.72"/>
<polygon fill="#ff4d4d" stroke="#ff4d4d" stroke-width="1.5" points="319.53,-84.15 328.83,-79.06 318.39,-77.24 319.53,-84.15"/>
<text text-anchor="middle" x="253.5" y="-101.84" font-family="Helvetica,sans-Serif" font-size="14.00" fill="#ffa93a">known gap</text>
</g>
<!-- home&#45;&gt;rule -->
</g>
</svg>
